<?xml version="1.0" encoding="utf-8"?>
<!-- Generator: Adobe Illustrator 19.2.0, SVG Export Plug-In . SVG Version: 6.00 Build 0)  -->
<svg version="1.1" id="Layer_1" xmlns="http://www.w3.org/2000/svg" xmlns:xlink="http://www.w3.org/1999/xlink" x="0px" y="0px"
	 viewBox="0 0 141.7 141.7" style="enable-background:new 0 0 141.7 141.7;" xml:space="preserve">
<style type="text/css">
	.st0{fill:none;stroke:#000000;stroke-miterlimit:10;}
	.st1{fill:none;stroke:#000000;stroke-width:2;stroke-linecap:round;stroke-miterlimit:10;}
</style>
<g>
	<g>
		<g id="XMLID_55_">
			<path d="M24.9,136.4l-0.5-0.4c-0.1-0.1-3.5-3.2-2.5-8.3c0.4-2,1.2-4.3,2.1-6.9c1.7-4.8,3.8-10.8,3.8-17c0-7.8-1.6-14-3.4-20.5
				c-2-7.4-4.2-15.9-4.2-27.8V13.2c0-4.3,4.1-6.8,4.3-6.9L25,6h21.6c0.9,0,1.7,0.7,1.7,1.7s-0.7,1.7-1.7,1.7H26
				c-0.7,0.5-2.3,1.9-2.3,3.8v42.2c0,11.5,2.1,19.3,4.1,26.9c1.8,6.8,3.5,13.1,3.5,21.4c0,6.8-2.2,13.1-4,18.2
				c-0.9,2.5-1.7,4.7-2,6.5c-0.5,2.3,0.5,4,1.1,4.7l20.4-0.2c0,0,0,0,0,0c0.9,0,1.7,0.7,1.7,1.7c0,0.9-0.7,1.7-1.7,1.7L24.9,136.4z"
				/>
			<path d="M64.7,136.4l-21.8-0.2c-0.9,0-1.7-0.8-1.7-1.7c0-0.9,0.8-1.7,1.7-1.7c0,0,0,0,0,0l20.4,0.2c0.6-0.7,1.5-2.4,1.1-4.7
				c-0.4-1.8-1.1-4-2-6.5c-1.8-5.1-4-11.4-4-18.2c0-8.2,1.7-14.6,3.5-21.4c2-7.6,4.1-15.4,4.1-26.9V13.2c0-1.9-1.6-3.3-2.3-3.8H43
				c-0.9,0-1.7-0.7-1.7-1.7S42,6,43,6h21.6L65,6.2c0.2,0.1,4.3,2.6,4.3,6.9v42.2c0,11.9-2.2,20.3-4.2,27.8
				c-1.7,6.5-3.4,12.7-3.4,20.5c0,6.2,2.1,12.2,3.8,17c0.9,2.6,1.7,4.9,2.1,6.9c1,5.1-2.4,8.2-2.5,8.3L64.7,136.4z"/>
			<path d="M35.5,25.4H22c-0.6,0-1.1-0.5-1.1-1.1c0-0.6,0.5-1.1,1.1-1.1h13.4c0.6,0,1.1,0.5,1.1,1.1C36.6,24.9,36.1,25.4,35.5,25.4z
				"/>
			<path d="M67.6,25.4H45.8c-0.6,0-1.1-0.5-1.1-1.1c0-0.6,0.5-1.1,1.1-1.1h21.8c0.6,0,1.1,0.5,1.1,1.1
				C68.7,24.9,68.2,25.4,67.6,25.4z"/>
		</g>
		<g id="XMLID_18_">
			<g id="XMLID_51_">
				<path id="XMLID_54_" class="st0" d="M42.7,37.6"/>
				<path id="XMLID_53_" class="st0" d="M59.8,68.3"/>
				<path d="M57.7,126.4l-15-0.2l0-1.1l14.3,0.2c0.2-0.5,0.6-1.8,0.2-3.8c-0.2-1.1-0.6-2.5-1.1-4.2c-1.1-4-2.5-8.9-2.5-13.8h1.1
					c0,4.7,1.4,9.6,2.5,13.5c0.5,1.6,0.9,3.1,1.1,4.2c0.6,3.1-0.4,4.8-0.4,4.8L57.7,126.4z"/>
			</g>
			<g id="XMLID_19_">
				<path id="XMLID_47_" class="st0" d="M45.1,37.6"/>
				<path id="XMLID_41_" class="st0" d="M27.9,68.3"/>
				<path id="XMLID_31_" class="st0" d="M33.6,103.5"/>
				<path id="XMLID_26_" class="st0" d="M30,121.4"/>
				<rect x="35.2" y="125.1" transform="matrix(1 -9.765159e-03 9.765159e-03 1 -1.2255 0.3979)" width="9.8" height="1.1"/>
			</g>
		</g>
		<path d="M40.7,62.6c-3.7,0-6.6-3.4-6.6-7.5c0-0.8,0.1-1.7,0.4-2.5c0.8-3.7,3.1-17.1-0.2-28.3l2.1-0.6c3.5,11.7,1.1,25.5,0.2,29.5
			c-0.2,0.7-0.3,1.3-0.3,1.9c0,2.9,2,5.3,4.4,5.3c2.4,0,4.4-2.4,4.4-5.3c0-0.7-0.1-1.3-0.3-1.9l0-0.1c-0.8-3.9-3.2-17.7,0.3-29.3
			l2.1,0.6c-3.3,11-1,24.3-0.2,28.2c0.3,0.8,0.4,1.7,0.4,2.6C47.3,59.3,44.3,62.6,40.7,62.6z"/>
	</g>
	<g>
		<g>
			<polygon points="99.5,83.7 99.1,83.7 99.1,81.5 99.3,81.5 99.5,81.5 			"/>
			<path d="M88.4,60.7c-5.4,0-9-2.1-9.3-2.3l1.1-1.9c0.3,0.2,7.5,4.3,16.5,0c9.9-4.9,22-0.2,22.5,0l-0.8,2.1c-0.1,0-11.6-4.5-20.7,0
				C94.3,60.1,91.2,60.7,88.4,60.7z"/>
		</g>
		<g>
			<path class="st1" d="M124.9,61.7"/>
			<path class="st1" d="M118.8,96.3"/>
			<path d="M101.1,82.8c-0.3,0-0.5,0-0.8,0c-0.3,0-0.5,0-0.8,0v-0.1c-4.9-0.3-9.1-2.4-12.4-6.1c-12.5-13.7-9.6-45.7-9.4-47.1
				l0.1-1.5h44.9l0.1,1.5c0.1,1.4,3,33.4-9.4,47.1C110.1,80.3,105.9,82.4,101.1,82.8L101.1,82.8z M80.9,31.4c-0.4,6.5-1.3,32,8.7,43
				c2.9,3.2,6.4,4.8,10.7,5c4.3-0.2,7.8-1.8,10.7-5c10-11,9.1-36.5,8.7-43H80.9z"/>
			<rect x="98.6" y="82.5" width="3.3" height="51.8"/>
			<path d="M115.7,136H84.9c-0.9,0-1.7-0.7-1.7-1.7s0.7-1.7,1.7-1.7h30.8c0.9,0,1.7,0.7,1.7,1.7S116.6,136,115.7,136z"/>
		</g>
	</g>
</g>
</svg>
