<?xml version="1.0" encoding="utf-8"?>
<!-- Generator: Adobe Illustrator 19.2.0, SVG Export Plug-In . SVG Version: 6.00 Build 0)  -->
<svg version="1.1" id="Layer_1" xmlns="http://www.w3.org/2000/svg" xmlns:xlink="http://www.w3.org/1999/xlink" x="0px" y="0px"
	 viewBox="0 0 141.7 141.7" style="enable-background:new 0 0 141.7 141.7;" xml:space="preserve">
<style type="text/css">
	.st0{fill:#FFFFFF;}
</style>
<g>
	<path d="M120.1,117.8H22.4c-8.6,0-15.6-7-15.6-15.6V56.4c0-8.6,7-15.6,15.6-15.6h97.7c8.6,0,15.6,7,15.6,15.6v45.7
		C135.7,110.8,128.7,117.8,120.1,117.8z M22.4,45c-6.3,0-11.5,5.2-11.5,11.5v45.7c0,6.3,5.2,11.5,11.5,11.5h97.7
		c6.3,0,11.5-5.2,11.5-11.5V56.4c0-6.3-5.2-11.5-11.5-11.5H22.4z"/>
	<path d="M28,109.4c-7,0-12.7-5.7-12.7-12.7c0-0.4,0.3-0.7,0.7-0.7c0.4,0,0.7,0.3,0.7,0.7c0,6.2,5.1,11.3,11.3,11.3
		c0.4,0,0.7,0.3,0.7,0.7S28.4,109.4,28,109.4z"/>
	<path d="M114.5,109.4c-0.4,0-0.7-0.3-0.7-0.7s0.3-0.7,0.7-0.7c6.2,0,11.3-5.1,11.3-11.3c0-0.4,0.3-0.7,0.7-0.7
		c0.4,0,0.7,0.3,0.7,0.7C127.2,103.7,121.5,109.4,114.5,109.4z"/>
	<path d="M41.4,70.2H26.7V41.7h14.7V70.2z M29.5,67.5h9.2v-23h-9.2V67.5z"/>
	<g>
		<line class="st0" x1="8.9" y1="63.1" x2="28.1" y2="63.1"/>
		<rect x="8.9" y="61.7" width="19.2" height="2.7"/>
	</g>
	<g>
		<line class="st0" x1="114.5" y1="63.1" x2="133.7" y2="63.1"/>
		<rect x="114.5" y="61.7" width="19.2" height="2.7"/>
	</g>
	<g>
		<line class="st0" x1="40" y1="63.1" x2="66.9" y2="63.1"/>
		<rect x="40" y="61.7" width="26.8" height="2.7"/>
	</g>
	<g>
		<line class="st0" x1="75.1" y1="63.1" x2="102" y2="63.1"/>
		<rect x="75.1" y="61.7" width="26.8" height="2.7"/>
	</g>
	<path d="M34.1,64.7c-1.8,0-3.3-1.5-3.3-3.3c0-1.8,1.5-3.3,3.3-3.3c1.8,0,3.3,1.5,3.3,3.3C37.3,63.2,35.9,64.7,34.1,64.7z
		 M34.1,59.6c-1,0-1.9,0.8-1.9,1.9c0,1,0.8,1.9,1.9,1.9s1.9-0.8,1.9-1.9C36,60.4,35.1,59.6,34.1,59.6z"/>
	<path d="M115.3,70.2h-14.7V41.7h14.7V70.2z M103.3,67.5h9.2v-23h-9.2V67.5z"/>
	<path d="M76.5,72h-11V56.4h11V72z M68.3,69.3h5.5V59.1h-5.5V69.3z"/>
	<path d="M108,64.7c-1.8,0-3.3-1.5-3.3-3.3c0-1.8,1.5-3.3,3.3-3.3c1.8,0,3.3,1.5,3.3,3.3C111.2,63.2,109.7,64.7,108,64.7z M108,59.6
		c-1,0-1.9,0.8-1.9,1.9c0,1,0.8,1.9,1.9,1.9s1.9-0.8,1.9-1.9C109.8,60.4,109,59.6,108,59.6z"/>
	<path d="M94.9,42.4c-1.1,0-2.1-0.9-2.1-2.1c0-8.2-2.9-13.6-4.8-13.6H54c-1.9,0-4.8,5.4-4.8,13.6c0,1.1-0.9,2.1-2.1,2.1
		s-2.1-0.9-2.1-2.1c0-10.1,3.8-17.7,8.9-17.7h34c5.1,0,8.9,7.6,8.9,17.7C96.9,41.4,96,42.4,94.9,42.4z"/>
</g>
</svg>
