<?xml version="1.0" encoding="utf-8"?>
<!-- Generator: Adobe Illustrator 19.2.0, SVG Export Plug-In . SVG Version: 6.00 Build 0)  -->
<svg version="1.1" id="Layer_1" xmlns="http://www.w3.org/2000/svg" xmlns:xlink="http://www.w3.org/1999/xlink" x="0px" y="0px"
	 viewBox="0 0 141.7 141.7" style="enable-background:new 0 0 141.7 141.7;" xml:space="preserve">
<g>
	<path d="M81.6,133.3H51.3v-3.7h29.1c3-2.3,20-15.7,20-29.6V73.6H51.3v-3.7h52.9v30c0,17.2-21.2,32.4-22.1,33L81.6,133.3z"/>
	<path d="M79.4,133.3H49.1l-0.5-0.3c-0.9-0.6-22.1-15.8-22.1-33v-30h52.9v3.7H30.3V100c0,14,17,27.3,20,29.6h29.1V133.3z"/>
	<path d="M65.3,51.3c-0.4,0-0.9-0.2-1.2-0.5c-0.1-0.1-9.2-8.3-0.2-19.1c7-8.5-0.1-21.8-0.2-21.9c-0.5-0.9-0.2-2,0.7-2.5
		c0.9-0.5,2-0.2,2.5,0.7c0.3,0.6,8.4,15.6-0.2,26.1c-6.7,8.1-0.5,13.8-0.2,14c0.8,0.7,0.8,1.8,0.2,2.6
		C66.4,51.1,65.9,51.3,65.3,51.3z"/>
	<path d="M43.2,63c-0.4,0-0.9-0.2-1.2-0.5c-2.5-2.2-5.8-8.2-0.2-15c5.1-6.2-0.1-15.8-0.2-15.9c-0.5-0.9-0.2-2,0.7-2.5
		c0.9-0.5,2-0.2,2.5,0.7c0.3,0.5,6.5,12-0.2,20.1c-4.7,5.8-0.4,9.7-0.2,9.9c0.8,0.7,0.8,1.8,0.2,2.6C44.2,62.8,43.7,63,43.2,63z"/>
	<path d="M88.7,60.1c-0.4,0-0.9-0.2-1.2-0.5c-2.5-2.2-5.8-8.2-0.2-15c5.1-6.1-0.1-15.8-0.2-15.9c-0.5-0.9-0.2-2,0.7-2.5
		c0.9-0.5,2-0.2,2.5,0.7c0.3,0.5,6.5,12-0.2,20.1c-4.7,5.8-0.4,9.7-0.2,9.9c0.8,0.7,0.8,1.8,0.2,2.6C89.7,59.9,89.2,60.1,88.7,60.1z
		"/>
	<path d="M102.3,85.2H28.4c-0.7,0-1.2-0.6-1.2-1.2s0.6-1.2,1.2-1.2h73.8c0.7,0,1.2,0.6,1.2,1.2S102.9,85.2,102.3,85.2z"/>
	<path d="M87.5,125.9H43.2c-0.3,0-0.6-0.3-0.6-0.6s0.3-0.6,0.6-0.6h44.3c0.3,0,0.6,0.3,0.6,0.6S87.8,125.9,87.5,125.9z"/>
	<path d="M112.6,99.8c-6.7,0-12.2-5.5-12.2-12.2s5.5-12.2,12.2-12.2c6.7,0,12.2,5.5,12.2,12.2S119.4,99.8,112.6,99.8z M112.6,79.1
		c-4.7,0-8.5,3.8-8.5,8.5s3.8,8.5,8.5,8.5c4.7,0,8.5-3.8,8.5-8.5S117.3,79.1,112.6,79.1z"/>
</g>
</svg>
