<?xml version="1.0" encoding="utf-8"?>
<!-- Generator: Adobe Illustrator 19.2.0, SVG Export Plug-In . SVG Version: 6.00 Build 0)  -->
<svg version="1.1" id="Layer_1" xmlns="http://www.w3.org/2000/svg" xmlns:xlink="http://www.w3.org/1999/xlink" x="0px" y="0px"
	 viewBox="0 0 141.7 141.7" style="enable-background:new 0 0 141.7 141.7;" xml:space="preserve">
<g>
	<g>
		<path d="M2465.8,913.2v-36.8c0-0.4,0.3-0.8,0.8-0.8s0.8,0.3,0.8,0.8V909l3.2-3.7c0.3-0.3,0.8-0.4,1.1-0.1c0.3,0.3,0.4,0.8,0.1,1.1
			L2465.8,913.2z"/>
		<path d="M2476.5,913.2l-6-6.9c-0.3-0.3-0.2-0.8,0.1-1.1c0.3-0.3,0.8-0.2,1.1,0.1l3.2,3.7v-29.3c0-0.4,0.3-0.8,0.8-0.8
			c0.4,0,0.8,0.3,0.8,0.8V913.2z"/>
	</g>
	<path d="M2540.9,961.5h-2.5l-0.4-0.2c-2.7-1.6-26.9-15.6-54.6,0l-0.4,0.2h-2.5V882l0.8-0.5c31.2-18,58.5-0.1,58.8,0.1l0.7,0.5
		V961.5z M2483.8,883.8v73.8c25-13.1,47.2-3.7,54-0.1v-73.8C2533.5,881.3,2510.2,869.1,2483.8,883.8z"/>
	<path d="M2542.5,966.8c-0.2,0-0.4,0-0.6,0l-60.1-5.3c-0.9-0.1-1.5-0.8-1.4-1.7c0.1-0.9,0.9-1.5,1.7-1.4l60.1,5.3
		c0.9,0.1,1.8-0.2,2.5-0.9c0.7-0.6,1.1-1.5,1.1-2.5v-65.1c0-1.9-1.5-3.4-3.4-3.4h-3.2c-0.9,0-1.6-0.7-1.6-1.6c0-0.9,0.7-1.6,1.6-1.6
		h3.2c3.6,0,6.5,2.9,6.5,6.5v65.1c0,1.8-0.8,3.5-2.1,4.8C2545.7,966.2,2544.2,966.8,2542.5,966.8z"/>
	<path d="M2483.6,961.5h-2.5l-0.4-0.2c-27.7-15.6-51.9-1.7-54.6,0l-0.4,0.2h-2.5v-79.5l0.7-0.5c0.3-0.2,27.6-18,58.8-0.1l0.8,0.5
		V961.5z M2453.7,950.9c8,0,17.2,1.7,26.8,6.7v-73.8c-26.5-14.8-49.8-2.5-54,0v73.8C2430.7,955.3,2440.7,950.9,2453.7,950.9z"/>
	<path d="M2421.7,966.8c-1.6,0-3.2-0.6-4.4-1.7c-1.3-1.2-2.1-3-2.1-4.8v-65.1c0-3.6,2.9-6.5,6.5-6.5h3.2c0.9,0,1.6,0.7,1.6,1.6
		c0,0.9-0.7,1.6-1.6,1.6h-3.2c-1.9,0-3.4,1.5-3.4,3.4v65.1c0,0.9,0.4,1.8,1.1,2.5c0.7,0.6,1.6,0.9,2.5,0.9l60.1-5.3
		c0.9-0.1,1.6,0.6,1.7,1.4c0.1,0.9-0.6,1.6-1.4,1.7l-60.1,5.3C2422.1,966.8,2421.9,966.8,2421.7,966.8z"/>
</g>
<path d="M131.5,43.8h-1.6v-6.7l-0.7-0.5c-0.3-0.2-27.2-17.7-58.1-0.4C40.2,18.9,13.3,36.4,13,36.6l-0.7,0.5v6.7h-1.6
	c-3.6,0-6.5,2.9-6.5,6.5v65.1c0,1.8,0.8,3.5,2.1,4.8c1.2,1.1,2.8,1.7,4.4,1.7c0.2,0,0.4,0,0.6,0l59.9-5.2l59.9,5.2
	c0.2,0,0.4,0,0.6,0c1.6,0,3.2-0.6,4.4-1.7c1.3-1.2,2.1-3,2.1-4.8V50.3C138,46.7,135.1,43.8,131.5,43.8z M72.8,38.8
	c26.5-14.7,49.8-2.5,54,0v73.8c-6.8-3.6-29-13-54,0.1V38.8z M60.7,60.3C60.7,60.3,60.7,60.3,60.7,60.3
	C60.7,60.2,60.7,60.2,60.7,60.3c-0.1-0.1-0.1-0.1-0.2-0.1c0,0-0.1-0.1-0.1-0.1c0,0-0.1,0-0.1,0c0,0-0.1,0-0.1,0c-0.1,0-0.1,0-0.1,0
	c0,0-0.1,0-0.1,0c0,0-0.1,0-0.1,0.1c0,0-0.1,0-0.1,0c0,0,0,0,0,0c0,0,0,0,0,0L56.3,64V33.5c2.5,0.7,5,1.5,7.6,2.6V64L60.7,60.3z
	 M15.5,38.8c3.5-2,19.3-10.4,39.3-5.7v35.1l5.4-6.2l5.4,6.2V36.8c1.3,0.6,2.6,1.3,4,2v73.8c-9.6-5-18.8-6.7-26.8-6.7
	c-12.9,0-23,4.4-27.2,6.7V38.8z M11,118.7c-0.9,0.1-1.8-0.2-2.5-0.9c-0.7-0.6-1.1-1.5-1.1-2.5V50.3c0-1.9,1.5-3.4,3.4-3.4h1.6v69.6
	h2.5l0.4-0.2c2.5-1.5,24.2-14,49.9-2.4L11,118.7z M134.9,115.4c0,0.9-0.4,1.8-1.1,2.5c-0.7,0.6-1.6,0.9-2.5,0.9l-54-4.7
	c25.6-11.6,47.3,0.8,49.9,2.4l0.4,0.2h2.5V46.9h1.6c1.9,0,3.4,1.5,3.4,3.4V115.4z"/>
</svg>
