<?xml version="1.0" standalone="no"?>
<!DOCTYPE svg PUBLIC "-//W3C//DTD SVG 20010904//EN"
 "http://www.w3.org/TR/2001/REC-SVG-20010904/DTD/svg10.dtd">
<svg version="1.0" xmlns="http://www.w3.org/2000/svg"
 width="16.000000pt" height="16.000000pt" viewBox="0 0 16.000000 16.000000"
 preserveAspectRatio="xMidYMid meet">
<metadata>
Created by potrace 1.11, written by Peter Selinger 2001-2013
</metadata>
<g transform="translate(0.000000,16.000000) scale(0.002450,-0.002450)"
fill="#000000" stroke="none">
<path d="M1856 5839 c-327 -48 -614 -257 -764 -556 -16 -32 -39 -86 -52 -119
-20 -56 -25 -62 -56 -67 -39 -7 -114 -64 -114 -88 0 -9 7 -22 15 -29 8 -7 15
-19 15 -28 0 -11 -8 -8 -29 12 -38 37 -60 29 -90 -35 -32 -64 -31 -100 2 -172
23 -52 29 -58 49 -51 12 3 30 16 39 28 10 11 20 19 23 16 3 -3 -6 -19 -19 -34
-27 -32 -21 -59 15 -71 28 -9 25 -21 -7 -34 -45 -17 -78 -20 -124 -10 -51 12
-81 36 -74 59 3 9 -3 25 -15 35 -11 10 -20 30 -20 45 0 32 -17 50 -47 50 -30
0 -57 -54 -41 -83 5 -11 8 -28 5 -38 -3 -11 1 -26 10 -34 29 -30 -12 -79 -73
-88 -43 -6 -63 8 -62 45 1 23 -6 37 -28 54 -25 20 -26 23 -6 17 26 -6 54 13
50 36 -1 9 4 27 11 40 18 33 8 97 -20 127 -12 13 -27 24 -34 24 -6 0 -18 9
-28 20 -10 12 -29 20 -47 20 -30 0 -70 -30 -70 -52 0 -7 -13 6 -29 28 -33 45
-67 66 -108 69 -59 4 -109 -46 -92 -91 12 -34 37 -36 92 -8 44 22 54 24 75 12
29 -15 47 -49 57 -108 4 -25 15 -56 25 -70 30 -43 79 -211 73 -249 -4 -26 -1
-37 13 -48 16 -12 17 -17 5 -50 -12 -34 -12 -38 6 -53 19 -15 20 -18 4 -53
l-16 -37 -161 0 -160 0 -2 -422 c-1 -233 -1 -520 -2 -638 0 -118 2 -226 4
-240 2 -14 7 -53 10 -88 7 -69 53 -207 93 -280 163 -296 444 -474 781 -493 39
-3 42 -5 43 -33 4 -129 39 -282 89 -393 34 -76 123 -211 174 -265 173 -183
394 -292 654 -322 47 -6 59 -12 110 -63 175 -172 362 -266 597 -299 28 -4 97
-7 155 -6 205 0 402 72 590 213 l95 71 65 -16 c132 -33 274 -40 420 -21 115
15 293 85 397 156 48 33 57 35 108 13 29 -12 126 -37 210 -53 3 -1 22 -1 44
-1 34 0 46 -7 97 -59 207 -207 441 -308 714 -309 277 -1 517 93 718 282 139
131 262 368 290 559 15 108 7 316 -17 409 -51 201 -140 353 -285 491 -59 55
-201 153 -263 181 -24 11 -43 22 -43 26 0 4 10 18 23 31 73 74 160 227 201
351 64 193 66 434 4 634 -1 5 47 59 107 119 213 214 296 420 290 725 -3 155
-4 167 -36 275 -27 91 -69 181 -123 263 -159 244 -452 425 -726 449 l-75 6
-72 73 c-326 329 -836 389 -1243 144 l-82 -49 -47 19 c-80 31 -200 52 -321 56
-221 6 -408 -49 -605 -180 -81 -55 -82 -55 -121 -42 -77 27 -170 43 -254 45
-92 2 -100 6 -170 70 -101 93 -281 184 -430 217 -78 18 -282 25 -364 13z m334
-54 c128 -24 303 -113 420 -213 l35 -30 -30 -7 c-202 -45 -301 -83 -412 -158
-230 -153 -374 -371 -439 -662 -3 -16 -8 -88 -9 -160 -3 -137 10 -233 44 -337
11 -32 17 -58 13 -58 -9 0 -61 -46 -145 -127 l-68 -66 -37 17 c-263 125 -472
419 -516 726 -7 48 -9 212 -2 245 2 11 7 40 11 65 4 25 20 82 36 128 113 335
411 586 764 643 54 8 278 4 335 -6z m2853 -29 c100 -30 185 -70 272 -129 59
-41 165 -134 165 -146 0 -4 -15 -8 -32 -9 -242 -17 -474 -129 -662 -320 l-69
-70 -43 84 c-39 76 -100 165 -164 238 -38 43 -161 139 -225 176 l-57 32 59 39
c83 56 217 106 338 126 17 3 32 6 34 8 2 2 69 2 150 1 123 -3 160 -7 234 -30z
m-1039 -110 c218 -60 415 -194 545 -369 43 -59 131 -224 131 -247 0 -6 -16
-39 -36 -73 -43 -73 -98 -234 -114 -332 -24 -142 -17 -316 15 -414 17 -52 9
-74 -54 -138 -38 -38 -44 -41 -69 -32 -121 46 -321 57 -486 28 -121 -22 -253
-67 -320 -110 l-47 -29 36 55 c110 173 159 337 159 540 0 215 -54 397 -169
570 -88 133 -189 227 -335 314 l-82 49 48 36 c101 74 236 133 370 161 90 19
325 13 408 -9z m-1110 -160 c146 -18 337 -102 471 -210 152 -121 275 -312 325
-505 23 -90 32 -264 18 -374 -40 -308 -263 -607 -550 -736 -170 -77 -396 -105
-574 -72 -187 35 -367 132 -509 276 -229 231 -323 551 -256 872 84 400 440
718 841 750 41 3 76 6 77 8 5 3 96 -2 157 -9z m2736 -70 c372 -30 716 -322
819 -696 145 -523 -165 -1052 -697 -1191 -99 -26 -279 -32 -386 -13 -356 62
-652 319 -759 659 -31 99 -39 153 -42 278 -3 123 10 210 45 312 127 370 483
642 855 654 38 1 71 4 73 6 2 2 9 2 15 0 7 -2 41 -6 77 -9z m-4620 -355 c0
-41 -9 -50 -41 -39 -22 7 -33 7 -44 -2 -8 -7 -15 -8 -15 -3 0 17 63 60 93 62
4 1 7 -8 7 -18z m-20 -125 c0 -26 -6 -48 -15 -56 -19 -16 -20 -51 -2 -44 10 3
14 -7 15 -38 2 -58 13 -141 20 -153 3 -5 2 -7 -3 -3 -4 4 -24 -6 -43 -24 -82
-71 -169 -85 -260 -43 -67 31 -70 31 -84 0 -18 -40 -86 -67 -162 -63 l-66 3
-21 63 c-12 35 -19 65 -17 67 2 2 18 -5 36 -15 37 -23 42 -50 10 -50 -22 -1
-21 -2 9 -30 28 -25 38 -29 83 -25 28 1 62 11 76 20 32 21 56 73 43 96 -6 12
-4 19 6 23 10 3 20 -5 29 -23 23 -44 62 -63 137 -69 56 -4 75 -1 114 18 46 22
85 69 85 100 -1 10 -8 6 -24 -12 -26 -29 -41 -27 -25 4 16 30 2 34 -26 8 -21
-19 -25 -21 -25 -7 0 9 4 17 10 17 5 0 17 14 26 31 16 33 9 48 -23 49 -7 0
-17 9 -23 19 -13 26 1 35 40 26 23 -5 30 -3 30 9 0 12 -10 16 -35 16 -31 0
-35 3 -35 25 0 17 8 29 25 37 13 6 28 20 31 32 8 25 22 36 47 36 14 0 17 -9
17 -44z m-824 3 c8 -14 -14 -29 -44 -29 -15 0 -26 -7 -29 -20 -4 -16 -8 -18
-19 -9 -20 17 -17 36 8 53 26 18 74 21 84 5z m664 -9 c-15 -9 -21 -160 -7
-160 4 0 5 -5 2 -10 -17 -27 -47 33 -47 93 1 40 37 102 54 91 7 -4 6 -9 -2
-14z m-486 -47 c3 -10 9 -25 14 -33 10 -17 41 -103 49 -136 4 -19 1 -21 -21
-17 -20 4 -28 0 -35 -18 -8 -22 -9 -21 -20 19 -9 32 -9 47 -1 57 8 10 5 19
-16 40 -21 21 -25 32 -20 58 9 44 39 62 50 30z m286 -159 c0 -27 -12 -37 -34
-28 -19 7 -22 60 -3 67 18 7 37 -13 37 -39z m388 -147 c3 -14 -4 -17 -34 -17
-37 0 -37 0 -19 20 22 24 48 22 53 -3z m-342 -22 c18 -14 17 -14 -13 -15 -25
0 -31 4 -27 15 8 19 15 19 40 0z m359 -34 c4 -7 -15 -11 -57 -12 -35 0 -85 -2
-113 -4 -88 -7 -197 -17 -214 -20 -9 -1 -36 -6 -61 -10 -63 -10 -79 -13 -98
-19 -30 -9 -102 -17 -102 -12 0 12 42 25 133 41 105 17 126 20 252 31 44 3 81
7 82 8 10 8 173 5 178 -3z m12 -56 c13 -4 36 -45 47 -82 6 -18 3 -23 -9 -23
-13 0 -16 6 -11 25 l7 26 -28 -18 c-28 -17 -28 -17 -12 2 33 41 -2 73 -66 61
-53 -10 -58 -60 -6 -73 l26 -7 -30 -7 c-16 -4 -54 -7 -84 -8 l-54 -1 23 25
c34 36 13 52 -24 20 -16 -14 -33 -25 -37 -25 -5 0 -6 -7 -3 -15 5 -11 -1 -15
-22 -16 -16 0 -37 -2 -46 -4 -24 -4 -23 3 5 25 16 13 19 22 11 30 -8 8 -19 4
-40 -12 -21 -16 -25 -17 -14 -4 13 16 12 20 -4 31 -15 11 -20 11 -36 -3 -17
-16 -17 -18 2 -34 16 -14 17 -18 5 -18 -9 0 -19 5 -22 10 -3 6 -14 10 -23 10
-13 -1 -10 -7 12 -24 l29 -24 -44 -7 c-24 -4 -54 -9 -66 -11 -18 -4 -22 1 -25
28 -2 28 -7 33 -28 34 -14 0 -33 5 -43 10 -28 16 -1 32 84 50 65 14 109 15
159 3 8 -2 14 1 13 8 -2 10 76 28 162 35 32 3 172 -9 192 -17z m83 -142 c0 -5
-53 -9 -117 -9 -105 0 -270 -11 -283 -19 -3 -1 -32 -6 -65 -9 -33 -4 -94 -16
-137 -27 -82 -21 -118 -24 -103 -10 12 10 113 37 175 46 25 4 54 9 65 11 11 2
49 7 85 10 36 4 66 8 68 9 8 7 312 5 312 -2z m-157 -147 c5 -17 0 -606 -6
-612 -10 -10 -57 9 -57 22 0 19 -39 18 -62 -3 -17 -15 -18 -15 -18 0 0 27 -29
20 -36 -9 -9 -35 -50 -50 -75 -28 -23 21 -24 34 -3 34 10 0 14 -6 11 -15 -8
-19 10 -30 28 -15 22 18 6 40 -51 67 -32 15 -54 32 -54 41 0 12 4 11 16 -6 22
-31 33 -27 28 11 l-3 32 14 -32 c19 -43 40 -55 33 -19 -3 14 -4 26 -4 26 1 0
17 -11 36 -25 19 -14 42 -25 53 -25 18 0 18 1 -2 34 -12 18 -21 44 -21 57 0
21 4 19 48 -22 49 -48 98 -77 71 -42 -8 10 -22 24 -31 31 -25 18 -22 32 6 32
14 0 32 8 41 17 16 16 16 17 -1 30 -10 7 -21 13 -26 13 -4 0 -14 13 -23 30
l-15 30 30 -6 c31 -7 43 9 14 20 -14 5 -13 9 5 32 27 35 18 54 -24 47 -19 -3
-35 -1 -39 6 -4 6 -1 11 8 11 8 0 28 11 43 25 24 20 25 24 9 25 -13 0 -16 5
-11 18 8 20 8 21 6 46 -1 19 -2 18 -24 -2 -29 -28 -58 -31 -34 -4 10 10 17 27
17 38 -1 18 -1 18 -11 2 -15 -26 -29 -22 -29 7 0 23 -5 20 -65 -37 -36 -35
-65 -68 -65 -75 0 -12 40 -39 50 -34 2 1 6 -1 7 -6 2 -4 -25 -9 -59 -10 -67
-2 -87 10 -62 38 13 15 13 17 -2 23 -13 5 -14 9 -4 21 7 8 21 15 31 15 9 0 24
6 31 13 7 8 19 12 26 9 14 -4 42 15 42 29 0 5 -7 9 -15 9 -7 0 -18 6 -22 14
-4 7 -17 18 -28 24 -27 14 -98 8 -104 -9 -2 -7 -15 -24 -29 -38 -14 -13 -28
-36 -32 -50 -7 -22 -8 -23 -9 -5 -1 11 -19 40 -41 64 -34 37 -44 42 -81 42
-29 -1 -49 -7 -63 -21 -19 -19 -19 -21 -3 -21 10 0 15 -5 12 -10 -4 -7 -12 -7
-25 0 -25 13 -30 13 -30 -5 0 -8 12 -17 28 -20 15 -4 35 -10 44 -16 10 -5 26
-9 36 -9 18 0 42 -18 42 -32 0 -4 -7 -5 -16 -1 -14 5 -16 2 -10 -20 8 -33 -22
-53 -62 -41 -15 4 -34 6 -42 5 -8 0 -3 6 13 14 l27 16 -22 39 c-13 22 -29 40
-36 40 -7 0 -22 16 -34 36 -22 37 -34 35 -40 -6 l-3 -25 -22 24 c-28 31 -37
24 -18 -13 20 -38 19 -43 -5 -21 -29 26 -49 7 -32 -30 17 -37 15 -44 -10 -38
l-23 5 24 -21 c13 -12 29 -21 37 -21 8 0 14 -4 14 -10 0 -5 -13 -10 -30 -10
-37 0 -40 -23 -9 -56 l22 -23 -28 -7 c-33 -8 -14 -24 22 -18 14 3 23 0 23 -8
0 -15 -56 -54 -71 -50 -5 1 -9 -5 -9 -13 0 -20 37 -38 66 -32 33 6 30 -6 -12
-43 -20 -17 -34 -33 -32 -35 7 -7 62 25 90 52 15 15 30 24 34 21 8 -8 -26 -78
-37 -78 -6 0 -5 -8 1 -19 5 -11 10 -28 9 -38 0 -15 -2 -14 -11 5 -8 15 -20 22
-40 22 -31 0 -31 -8 4 -46 18 -20 18 -21 -3 -20 -12 1 -28 -9 -37 -22 -15 -22
-15 -24 4 -21 10 2 40 -1 67 -5 42 -6 49 -11 62 -44 12 -28 13 -42 4 -63 -11
-28 -3 -62 10 -40 11 18 69 -9 76 -36 3 -13 12 -23 21 -23 8 0 13 4 9 9 -3 5
9 19 26 32 l31 22 -12 -23 c-9 -16 -9 -25 -1 -33 9 -9 14 -8 20 2 7 11 15 10
44 -4 19 -9 43 -15 54 -13 17 3 21 -14 14 -54 0 -4 -109 -6 -241 -6 l-240 2 0
488 0 488 445 -2 c308 -1 445 -5 448 -12z m257 4 c11 -6 20 -16 20 -23 -1 -7
-57 -70 -125 -142 l-125 -130 0 146 c0 80 2 148 4 150 11 10 207 9 226 -1z
m628 -100 c25 -56 108 -175 166 -237 155 -168 362 -275 594 -307 207 -29 426
7 595 96 31 17 60 28 63 25 4 -3 -4 -22 -16 -42 -59 -96 -103 -206 -131 -330
-26 -117 -19 -390 12 -472 17 -47 10 -71 -38 -123 l-48 -50 -65 20 c-63 19
-175 34 -255 33 -227 -1 -438 -71 -614 -204 l-81 -61 -63 30 c-199 93 -363
251 -456 439 -29 59 -68 167 -76 213 -3 14 -9 46 -13 72 -13 69 -7 262 11 343
41 189 139 359 288 499 50 47 97 86 103 86 6 0 17 -14 24 -30z m-1128 0 c0 -5
-4 -10 -9 -10 -6 0 -13 5 -16 10 -3 6 1 10 9 10 9 0 16 -4 16 -10z m3894 -73
c39 -73 43 -85 23 -69 -7 6 -42 25 -77 43 l-64 32 38 34 c21 19 39 33 41 31 2
-1 19 -33 39 -71z m-344 19 c240 -39 481 -196 629 -410 72 -105 134 -251 147
-351 4 -22 9 -58 13 -80 13 -72 4 -236 -18 -330 -68 -286 -307 -562 -576 -666
-131 -51 -230 -68 -385 -65 -151 3 -171 7 -287 46 -141 47 -225 102 -353 230
-121 121 -173 197 -225 325 -79 198 -88 457 -24 649 117 346 442 619 779 653
30 3 57 7 59 9 5 5 204 -4 241 -10z m-2850 -26 c0 -5 -11 -22 -25 -38 -14 -17
-25 -35 -25 -41 0 -13 40 -24 71 -19 20 2 24 8 21 36 -1 17 0 32 3 32 15 0 66
-32 63 -40 -3 -9 -111 -129 -229 -255 -37 -38 -77 -83 -91 -99 -23 -27 -27
-28 -59 -17 -46 15 -98 19 -131 10 -48 -13 -34 16 49 104 43 45 100 107 129
137 162 175 197 208 210 203 8 -3 14 -9 14 -13z m-787 -99 c4 0 7 -21 7 -46
l0 -46 -117 3 -118 3 -1 42 c-2 36 1 42 20 45 19 3 191 2 209 -1z m-3 -207
c-22 -58 -92 -86 -162 -65 -30 10 -43 20 -54 46 -8 19 -14 37 -14 40 0 3 54 5
120 5 l120 0 -10 -26z m-284 -38 c-2 -14 1 -27 7 -29 7 -2 -5 -9 -26 -16 -44
-15 -64 -43 -42 -61 15 -12 39 -5 30 10 -3 5 -1 11 5 15 21 13 9 -24 -12 -39
-34 -24 -46 -19 -58 23 -6 22 -16 41 -22 43 -6 2 5 14 25 26 21 12 37 26 37
32 0 5 4 10 10 10 6 0 6 -9 0 -26 -14 -35 10 -28 28 9 16 34 24 35 18 3z
m5744 -112 c70 -312 -10 -630 -217 -862 l-39 -43 -74 21 c-55 16 -110 23 -210
25 -154 5 -235 -6 -366 -46 -38 -12 -100 -38 -139 -58 -38 -20 -74 -38 -79
-40 -5 -2 0 9 11 25 34 51 92 194 108 270 38 178 39 335 4 479 -13 55 -67 191
-96 242 -12 23 -23 44 -23 46 0 2 37 -14 83 -37 148 -75 283 -107 446 -109
146 -2 227 11 356 56 60 21 181 81 200 98 12 12 21 -6 35 -67z m-5620 45 c0
-5 -7 -9 -15 -9 -19 0 -19 -9 0 -34 8 -11 15 -30 15 -42 0 -25 -21 -45 -28
-26 -5 17 -29 15 -35 -2 -8 -19 13 -44 41 -48 21 -3 22 -4 7 -25 -10 -15 -26
-23 -45 -23 -33 0 -49 18 -29 31 12 7 11 11 -3 25 -15 16 -18 15 -41 -10 -25
-26 -66 -38 -50 -13 4 6 8 27 8 46 0 30 4 36 35 46 29 10 37 9 46 -4 17 -22
40 0 47 45 3 20 11 42 18 50 12 14 29 10 29 -7z m130 0 c4 -8 11 -30 15 -49 4
-19 13 -38 19 -42 6 -4 -1 -8 -16 -8 -16 0 -28 -4 -28 -10 0 -21 -20 -9 -26
15 -4 16 0 34 10 50 17 25 13 51 -5 40 -5 -4 -9 0 -9 9 0 18 29 15 40 -5z
m349 -53 c8 -5 11 -93 11 -291 l0 -283 -37 10 c-64 18 -133 6 -199 -35 -76
-46 -110 -55 -116 -30 -2 10 -3 88 -2 173 1 85 2 206 3 268 1 75 5 112 12 112
6 0 52 19 103 41 50 23 105 45 121 49 30 6 82 -1 104 -14z m251 -26 c47 -21
102 -44 122 -51 l37 -13 -2 -275 c-2 -326 8 -309 -136 -237 -93 47 -135 55
-198 37 -22 -6 -33 -6 -35 2 -2 7 -4 136 -3 287 l0 275 35 12 c45 16 77 9 180
-37z m-529 3 c13 -16 12 -17 -3 -4 -10 7 -18 15 -18 17 0 8 8 3 21 -13z m-382
-380 c-24 -27 -59 -65 -79 -87 -19 -21 -59 -64 -87 -95 l-53 -56 0 38 c-2 44
-2 106 -1 187 l1 60 131 0 132 0 -44 -47z m267 -139 c3 -54 2 -109 -3 -120 -6
-17 -193 -220 -322 -351 -7 -8 -18 -12 -24 -10 -13 4 -77 116 -77 134 0 7 46
61 103 120 196 207 254 268 282 301 16 17 30 31 31 29 2 -2 6 -48 10 -103z
m888 -69 c3 -8 -3 -19 -14 -25 -22 -12 -33 0 -24 24 8 20 30 21 38 1z m-434
-35 c0 -23 -24 -42 -44 -34 -21 8 -21 50 1 63 21 11 43 -3 43 -29z m-82 -49
c18 -22 32 -48 32 -59 0 -20 -2 -22 -165 -198 -100 -108 -164 -177 -283 -301
-22 -24 -44 -43 -48 -43 -15 0 -113 86 -113 100 0 8 37 54 82 101 45 47 100
106 121 130 55 62 215 238 253 276 44 47 80 45 121 -6z m162 18 c0 -12 -16
-37 -35 -56 -39 -39 -35 -59 12 -65 l26 -3 -38 -37 c-30 -29 -34 -36 -17 -31
12 3 38 20 57 39 20 19 39 34 41 34 9 0 -8 -44 -28 -72 l-19 -28 25 0 c13 0
39 12 57 28 l33 27 -29 -37 c-22 -28 -35 -36 -51 -32 -19 5 -21 2 -17 -23 l4
-28 -16 28 c-15 25 -43 35 -58 21 -3 -4 3 -18 14 -33 l21 -26 -24 -5 c-29 -7
-38 -48 -11 -47 40 0 41 -3 12 -72 -16 -38 -35 -93 -43 -122 -18 -66 -18 -69
-18 246 l-1 249 25 8 c14 5 30 20 36 33 14 31 42 33 42 4z m405 -36 c83 -155
264 -323 437 -407 l58 -28 -20 -27 c-127 -163 -194 -290 -231 -436 -20 -75
-23 -114 -23 -240 1 -129 5 -164 27 -249 26 -96 103 -272 135 -309 8 -9 12
-20 9 -24 -10 -10 -124 13 -214 43 -250 84 -433 241 -546 469 -129 257 -139
552 -29 815 38 88 125 219 194 289 50 51 162 141 177 141 3 0 15 -17 26 -37z
m1712 -203 c18 -33 30 -60 27 -60 -2 0 -32 14 -65 31 l-61 30 28 30 c15 16 30
29 33 29 3 0 21 -27 38 -60z m-312 9 c184 -30 359 -121 488 -253 128 -131 214
-269 255 -411 32 -107 34 -121 38 -260 5 -184 -29 -330 -113 -478 -224 -398
-670 -586 -1101 -467 -239 66 -469 253 -591 481 -80 150 -111 285 -107 469 5
208 61 376 181 540 221 301 572 441 950 379z m2761 1 c22 -5 50 -11 64 -13 53
-10 158 -50 227 -87 240 -129 407 -331 473 -574 31 -111 31 -114 35 -276 3
-126 1 -156 -20 -235 -29 -112 -62 -188 -130 -290 -130 -196 -376 -369 -585
-411 -84 -17 -123 -22 -202 -23 -308 -6 -587 130 -778 379 -141 184 -202 373
-195 605 4 127 11 172 42 265 91 278 316 515 578 609 141 51 379 76 491 51z
m-4696 -361 l0 -191 -67 7 c-105 11 -223 41 -223 56 0 31 253 319 280 319 6 0
10 -75 10 -191z m3641 -135 c-106 -218 -136 -467 -82 -684 25 -97 27 -90 -70
-191 -182 -189 -404 -286 -679 -294 -119 -4 -290 22 -290 43 0 4 20 34 45 67
82 109 160 282 191 420 11 52 13 297 3 360 -13 75 -50 188 -92 273 -17 37 -33
70 -35 75 -2 4 27 -8 65 -27 81 -41 200 -82 263 -91 24 -4 48 -9 52 -11 19
-12 221 -5 306 10 106 19 233 63 307 105 28 16 51 28 52 27 2 -1 -15 -38 -36
-82z m-21 -864 c7 -16 32 -63 55 -105 l44 -76 -47 6 c-61 9 -201 45 -207 54
-4 7 124 149 136 150 4 1 12 -12 19 -29z"/>
<path d="M940 4926 c0 -2 7 -9 15 -16 13 -11 14 -10 9 4 -5 14 -24 23 -24 12z"/>
<path d="M915 4890 c3 -5 10 -10 16 -10 5 0 9 5 9 10 0 6 -7 10 -16 10 -8 0
-12 -4 -9 -10z"/>
<path d="M930 4794 c0 -10 28 -33 33 -27 3 3 0 12 -8 19 -14 15 -25 18 -25 8z"/>
<path d="M605 4727 c-4 -10 -5 -21 -1 -24 10 -10 18 4 13 24 -4 17 -4 17 -12
0z"/>
<path d="M810 4450 c0 -5 -4 -10 -10 -10 -16 0 -50 -39 -40 -45 14 -8 70 33
70 51 0 8 -4 14 -10 14 -5 0 -10 -4 -10 -10z"/>
<path d="M543 4376 c-10 -11 -9 -15 1 -19 16 -7 26 1 26 20 0 17 -12 16 -27
-1z"/>
<path d="M1050 4124 c-17 -20 -28 -40 -23 -45 4 -4 27 -11 51 -13 39 -5 42 -4
42 18 0 32 -17 76 -29 76 -5 0 -23 -16 -41 -36z"/>
<path d="M1271 3818 c-17 -18 -31 -36 -31 -40 0 -12 34 -25 65 -24 28 1 30 4
28 35 -1 19 -8 41 -16 49 -12 12 -19 9 -46 -20z"/>
<path d="M1127 3661 l-27 -30 22 -15 c12 -9 35 -16 50 -16 22 0 28 5 28 23 -1
71 -28 85 -73 38z"/>
<path d="M859 3493 c-1 -5 -2 -29 -3 -55 -1 -39 2 -48 16 -48 11 0 15 6 11 20
-3 11 0 20 6 20 6 0 11 -6 11 -14 0 -7 6 -19 14 -25 12 -10 14 -5 12 36 -1 27
-6 54 -10 61 -8 13 -55 17 -57 5z m41 -23 c0 -5 -5 -10 -11 -10 -5 0 -7 5 -4
10 3 6 8 10 11 10 2 0 4 -4 4 -10z"/>
<path d="M800 3465 c-21 -11 -25 -21 -26 -64 0 -28 1 -51 3 -51 14 0 63 33 63
41 0 8 -5 7 -15 -1 -21 -17 -32 -4 -17 20 15 24 15 33 2 25 -5 -3 -10 -2 -10
4 0 5 8 14 17 20 28 15 11 21 -17 6z"/>
<path d="M733 3426 c3 -8 0 -22 -7 -32 -13 -17 -14 -17 -20 4 -4 13 -13 19
-21 16 -12 -5 -11 -13 5 -45 11 -21 22 -39 24 -39 4 0 36 94 36 104 0 3 -5 6
-11 6 -6 0 -9 -6 -6 -14z"/>
<path d="M848 3308 c-2 -7 -1 -31 3 -53 4 -28 7 -32 8 -14 1 21 6 27 25 27 17
0 23 -6 22 -21 -1 -11 5 -22 12 -24 7 -3 12 6 13 24 0 15 2 36 4 45 4 24 -15
35 -27 14 -8 -14 -11 -14 -32 -1 -19 12 -24 13 -28 3z"/>
<path d="M813 3279 c-2 -27 -23 -51 -23 -27 0 17 -18 34 -26 25 -6 -6 22 -77
31 -77 6 0 21 37 31 75 3 14 2 25 -3 25 -5 0 -9 -10 -10 -21z"/>
<path d="M701 3251 c-14 -9 -21 -111 -7 -111 3 0 13 0 21 0 8 0 21 10 29 23
13 18 13 30 4 60 -12 38 -22 44 -47 28z m29 -71 c0 -11 -4 -20 -9 -20 -7 0 -8
17 -2 38 4 10 11 -2 11 -18z"/>
<path d="M881 3104 c-1 -40 2 -55 12 -51 16 5 18 107 2 107 -8 0 -13 -20 -14
-56z"/>
<path d="M832 3116 c-2 -28 -3 -28 -20 -13 -28 26 -32 21 -30 -35 1 -38 2 -44
5 -20 4 33 5 33 24 16 25 -23 31 -15 26 37 -2 28 -4 33 -5 15z"/>
<path d="M705 3079 c-17 -8 -19 -18 -17 -54 2 -25 7 -45 12 -45 17 0 60 43 60
60 0 47 -16 58 -55 39z m27 -51 c-3 -13 -7 -16 -12 -8 -4 7 -5 21 -2 32 3 13
7 16 12 8 4 -7 5 -21 2 -32z"/>
<path d="M1108 3438 c-2 -29 -3 -54 -2 -56 6 -9 74 -13 74 -4 0 5 -9 8 -19 5
-22 -6 -31 25 -20 69 6 23 -4 38 -26 38 -2 0 -5 -24 -7 -52z"/>
<path d="M1209 3406 c9 -31 19 -56 22 -56 6 0 39 66 39 78 -1 4 -7 -4 -15 -18
-14 -26 -20 -21 -27 25 -2 11 -11 21 -19 23 -15 3 -15 -1 0 -52z"/>
<path d="M1064 3295 c-13 -52 22 -104 50 -74 8 9 8 10 -2 5 -18 -11 -35 40
-21 65 8 16 13 18 25 8 8 -7 14 -7 14 -1 0 11 -23 22 -46 22 -7 0 -16 -11 -20
-25z"/>
<path d="M1151 3257 c-2 -49 0 -54 25 -66 20 -9 30 -9 38 -1 8 9 6 11 -9 8
-23 -4 -34 30 -13 44 10 7 10 11 1 15 -19 7 -16 34 2 27 8 -4 15 -2 15 4 0 8
-31 21 -51 22 -3 0 -7 -24 -8 -53z"/>
<path d="M1246 3272 c-2 -4 -6 -29 -7 -56 -3 -53 14 -74 27 -34 7 22 8 21 19
-12 6 -19 16 -33 21 -30 5 3 7 10 5 15 -2 6 -5 26 -7 45 -1 19 -3 38 -3 41 -1
11 -50 39 -55 31z m31 -44 c-3 -8 -6 -5 -6 6 -1 11 2 17 5 13 3 -3 4 -12 1
-19z"/>
<path d="M1104 3090 c0 -27 2 -47 5 -44 6 5 7 10 10 36 0 7 12 -4 26 -25 14
-20 27 -37 28 -37 8 0 5 100 -3 105 -6 3 -10 -4 -10 -17 -1 -23 -1 -23 -21 5
-11 15 -24 27 -28 27 -3 0 -7 -22 -7 -50z"/>
<path d="M1202 3071 c-15 -50 -15 -56 2 -42 11 9 18 6 34 -16 27 -37 36 -25
22 28 -21 78 -41 88 -58 30z"/>
<path d="M132 3135 c-52 -43 -40 -75 29 -75 26 0 29 3 29 33 0 18 -6 41 -13
51 -12 17 -15 16 -45 -9z"/>
<path d="M470 2954 c-37 -32 -35 -57 5 -64 48 -9 64 -2 59 28 -12 71 -18 74
-64 36z"/>
<path d="M333 2810 c-33 -41 -29 -57 15 -63 20 -2 40 -2 45 0 10 6 9 51 -3 74
-14 26 -31 23 -57 -11z"/>
<path d="M203 2672 c-15 -15 -28 -34 -28 -41 0 -17 29 -29 69 -30 27 -1 28 1
22 30 -3 17 -6 37 -6 44 0 25 -29 23 -57 -3z"/>
<path d="M850 2834 c-33 -35 -34 -53 -2 -60 15 -3 35 -7 45 -9 24 -5 30 14 19
56 -10 42 -30 46 -62 13z"/>
<path d="M723 2690 c-13 -15 -23 -33 -23 -38 0 -11 33 -22 68 -22 18 0 22 6
22 29 0 66 -29 80 -67 31z"/>
<path d="M613 2573 c-7 -2 -13 -9 -13 -15 0 -5 -9 -17 -20 -26 -28 -23 -13
-41 38 -45 40 -3 42 -2 42 25 0 31 -16 69 -28 67 -4 0 -13 -3 -19 -6z"/>
<path d="M457 2401 c-42 -45 -35 -60 28 -66 41 -4 54 20 33 62 -18 37 -29 38
-61 4z"/>
<path d="M887 2312 c-22 -23 -35 -51 -24 -52 80 -13 77 -13 77 17 0 16 -6 37
-13 47 -11 16 -14 15 -40 -12z"/>
<path d="M775 2190 c-3 -11 -11 -20 -16 -20 -17 0 -9 -40 9 -41 9 0 27 -2 40
-3 23 -3 28 15 16 62 -8 28 -40 29 -49 2z"/>
</g>
</svg>
