<?xml version="1.0" encoding="utf-8"?>
<!-- Generator: Adobe Illustrator 19.2.0, SVG Export Plug-In . SVG Version: 6.00 Build 0)  -->
<svg version="1.1" id="Layer_1" xmlns="http://www.w3.org/2000/svg" xmlns:xlink="http://www.w3.org/1999/xlink" x="0px" y="0px"
	 viewBox="0 0 141.7 141.7" style="enable-background:new 0 0 141.7 141.7;" xml:space="preserve">
<style type="text/css">
	.st0{fill:none;stroke:#000000;stroke-width:3;stroke-linecap:round;stroke-miterlimit:10;}
</style>
<g>
	<g>
		<path d="M2465.8,913.2v-36.8c0-0.4,0.3-0.8,0.8-0.8s0.8,0.3,0.8,0.8V909l3.2-3.7c0.3-0.3,0.8-0.4,1.1-0.1c0.3,0.3,0.4,0.8,0.1,1.1
			L2465.8,913.2z"/>
		<path d="M2476.5,913.2l-6-6.9c-0.3-0.3-0.2-0.8,0.1-1.1c0.3-0.3,0.8-0.2,1.1,0.1l3.2,3.7v-29.3c0-0.4,0.3-0.8,0.8-0.8
			c0.4,0,0.8,0.3,0.8,0.8V913.2z"/>
	</g>
	<path d="M2540.9,961.5h-2.5l-0.4-0.2c-2.7-1.6-26.9-15.6-54.6,0l-0.4,0.2h-2.5V882l0.8-0.5c31.2-18,58.5-0.1,58.8,0.1l0.7,0.5
		V961.5z M2483.8,883.8v73.8c25-13.1,47.2-3.7,54-0.1v-73.8C2533.5,881.3,2510.2,869.1,2483.8,883.8z"/>
	<path d="M2542.5,966.8c-0.2,0-0.4,0-0.6,0l-60.1-5.3c-0.9-0.1-1.5-0.8-1.4-1.7c0.1-0.9,0.9-1.5,1.7-1.4l60.1,5.3
		c0.9,0.1,1.8-0.2,2.5-0.9c0.7-0.6,1.1-1.5,1.1-2.5v-65.1c0-1.9-1.5-3.4-3.4-3.4h-3.2c-0.9,0-1.6-0.7-1.6-1.6c0-0.9,0.7-1.6,1.6-1.6
		h3.2c3.6,0,6.5,2.9,6.5,6.5v65.1c0,1.8-0.8,3.5-2.1,4.8C2545.7,966.2,2544.2,966.8,2542.5,966.8z"/>
	<path d="M2483.6,961.5h-2.5l-0.4-0.2c-27.7-15.6-51.9-1.7-54.6,0l-0.4,0.2h-2.5v-79.5l0.7-0.5c0.3-0.2,27.6-18,58.8-0.1l0.8,0.5
		V961.5z M2453.7,950.9c8,0,17.2,1.7,26.8,6.7v-73.8c-26.5-14.8-49.8-2.5-54,0v73.8C2430.7,955.3,2440.7,950.9,2453.7,950.9z"/>
	<path d="M2421.7,966.8c-1.6,0-3.2-0.6-4.4-1.7c-1.3-1.2-2.1-3-2.1-4.8v-65.1c0-3.6,2.9-6.5,6.5-6.5h3.2c0.9,0,1.6,0.7,1.6,1.6
		c0,0.9-0.7,1.6-1.6,1.6h-3.2c-1.9,0-3.4,1.5-3.4,3.4v65.1c0,0.9,0.4,1.8,1.1,2.5c0.7,0.6,1.6,0.9,2.5,0.9l60.1-5.3
		c0.9-0.1,1.6,0.6,1.7,1.4c0.1,0.9-0.6,1.6-1.4,1.7l-60.1,5.3C2422.1,966.8,2421.9,966.8,2421.7,966.8z"/>
</g>
<g>
	<g id="XMLID_15_">
		<path d="M24.3,136.8l-0.5-0.4c-0.1-0.1-3.5-3.2-2.5-8.3c0.4-2,1.2-4.3,2.1-6.9c1.7-4.8,3.8-10.8,3.8-17.1c0-7.8-1.6-14-3.4-20.5
			c-2-7.4-4.2-15.9-4.2-27.8V13.5c0-4.3,4.1-6.8,4.3-6.9l0.4-0.2h21.7C47,6.3,47.7,7,47.7,8S47,9.6,46.1,9.6H25.4
			c-0.7,0.5-2.3,1.9-2.3,3.8v42.3c0,11.5,2.1,19.3,4.1,26.9c1.8,6.8,3.5,13.2,3.5,21.4c0,6.8-2.2,13.1-4,18.2
			c-0.9,2.5-1.7,4.7-2,6.5c-0.5,2.3,0.5,4,1.1,4.7l20.4-0.2c0,0,0,0,0,0c0.9,0,1.7,0.7,1.7,1.7c0,0.9-0.7,1.7-1.7,1.7L24.3,136.8z"
			/>
		<path d="M64.1,136.8l-21.8-0.2c-0.9,0-1.7-0.8-1.7-1.7c0-0.9,0.8-1.7,1.7-1.7c0,0,0,0,0,0l20.4,0.2c0.6-0.7,1.5-2.4,1.1-4.7
			c-0.4-1.8-1.1-4-2-6.5c-1.8-5.1-4-11.4-4-18.2c0-8.2,1.7-14.6,3.5-21.4c2-7.6,4.1-15.5,4.1-26.9V13.5c0-1.9-1.6-3.3-2.3-3.8H42.3
			c-0.9,0-1.7-0.7-1.7-1.7s0.7-1.7,1.7-1.7H64l0.4,0.2c0.2,0.1,4.3,2.6,4.3,6.9v42.3c0,11.9-2.2,20.4-4.2,27.8
			c-1.7,6.6-3.4,12.7-3.4,20.5c0,6.2,2.1,12.2,3.8,17.1c0.9,2.6,1.7,4.9,2.1,6.9c1,5.1-2.4,8.2-2.5,8.3L64.1,136.8z"/>
	</g>
	<path d="M58.4,26.1h-13h-2.7h-2c-2.2,10.9-0.3,22.8,0.4,26.4c0.2,0.7,0.4,1.5,0.4,2.3c0,3.6-2.3,6.4-5.2,6.4
		c-2.9,0-5.2-2.9-5.2-6.4c0-0.8,0.1-1.5,0.3-2.2c0.7-3.4,2.7-15.5,0.4-26.5h-2.2h-4.1c0,0,0,1.6,0,4.4c0,7,0,18.4,0,31.1
		c0,17.7,6.6,27.1,6.6,40.9c0,7.9-3.3,16.1-4.2,20.7c-0.7,3.4,0.4,5.1,0.4,5.1l5.6-0.1l10-0.1l10,0.1l5.6,0.1c0,0,1.1-1.7,0.4-5.1
		c-0.9-4.6-4.2-12.8-4.2-20.7c0-13.7,6.6-23.2,6.6-40.9c0-12.7,0-24.1,0-31.1c0-2.8,0-4.4,0-4.4H58.4z"/>
	<path d="M102.2,83.5c-0.3,0-0.5,0-0.8,0c-0.3,0-0.5,0-0.8,0v-0.1c-4.9-0.3-9.1-2.4-12.4-6.1c-12.5-13.7-9.6-45.8-9.4-47.1l0.1-1.5
		h45l0.1,1.5c0.1,1.4,3,33.4-9.4,47.1C111.3,81.1,107.1,83.1,102.2,83.5L102.2,83.5z M82.1,32.1c-0.4,6.5-1.3,32,8.7,43.1
		c2.9,3.2,6.4,4.9,10.7,5c4.3-0.2,7.8-1.8,10.7-5c10-11,9.1-36.6,8.7-43.1H82.1z"/>
	<rect x="99.8" y="83.3" width="3.3" height="51.9"/>
	<line class="st0" x1="86.1" y1="135.1" x2="116.9" y2="135.1"/>
	<g>
		<path d="M101.7,77c-0.1,0-0.1,0-0.2,0c-0.1,0-0.1,0-0.2,0H101.7z"/>
		<path d="M118.4,51.8c0,0-10.3-4.7-18.7,0c-8.3,4.7-15.2,0-15.2,0s-0.3,1.1,0,2.9c1.5,10.8,5.8,22.1,16.9,22.2
			c11.1-0.1,15.4-11.4,16.9-22.2C118.6,53.4,118.4,51.8,118.4,51.8z"/>
	</g>
</g>
</svg>
