<?xml version="1.0" encoding="utf-8"?>
<!-- Generator: Adobe Illustrator 19.2.0, SVG Export Plug-In . SVG Version: 6.00 Build 0)  -->
<svg version="1.1" id="Layer_1" xmlns="http://www.w3.org/2000/svg" xmlns:xlink="http://www.w3.org/1999/xlink" x="0px" y="0px"
	 viewBox="0 0 141.7 141.7" style="enable-background:new 0 0 141.7 141.7;" xml:space="preserve">
<g>
	<g>
		<path d="M2465.8,913.2v-36.8c0-0.4,0.3-0.8,0.8-0.8s0.8,0.3,0.8,0.8V909l3.2-3.7c0.3-0.3,0.8-0.4,1.1-0.1c0.3,0.3,0.4,0.8,0.1,1.1
			L2465.8,913.2z"/>
		<path d="M2476.5,913.2l-6-6.9c-0.3-0.3-0.2-0.8,0.1-1.1c0.3-0.3,0.8-0.2,1.1,0.1l3.2,3.7v-29.3c0-0.4,0.3-0.8,0.8-0.8
			c0.4,0,0.8,0.3,0.8,0.8V913.2z"/>
	</g>
	<path d="M2540.9,961.5h-2.5l-0.4-0.2c-2.7-1.6-26.9-15.6-54.6,0l-0.4,0.2h-2.5V882l0.8-0.5c31.2-18,58.5-0.1,58.8,0.1l0.7,0.5
		V961.5z M2483.8,883.8v73.8c25-13.1,47.2-3.7,54-0.1v-73.8C2533.5,881.3,2510.2,869.1,2483.8,883.8z"/>
	<path d="M2542.5,966.8c-0.2,0-0.4,0-0.6,0l-60.1-5.3c-0.9-0.1-1.5-0.8-1.4-1.7c0.1-0.9,0.9-1.5,1.7-1.4l60.1,5.3
		c0.9,0.1,1.8-0.2,2.5-0.9c0.7-0.6,1.1-1.5,1.1-2.5v-65.1c0-1.9-1.5-3.4-3.4-3.4h-3.2c-0.9,0-1.6-0.7-1.6-1.6c0-0.9,0.7-1.6,1.6-1.6
		h3.2c3.6,0,6.5,2.9,6.5,6.5v65.1c0,1.8-0.8,3.5-2.1,4.8C2545.7,966.2,2544.2,966.8,2542.5,966.8z"/>
	<path d="M2483.6,961.5h-2.5l-0.4-0.2c-27.7-15.6-51.9-1.7-54.6,0l-0.4,0.2h-2.5v-79.5l0.7-0.5c0.3-0.2,27.6-18,58.8-0.1l0.8,0.5
		V961.5z M2453.7,950.9c8,0,17.2,1.7,26.8,6.7v-73.8c-26.5-14.8-49.8-2.5-54,0v73.8C2430.7,955.3,2440.7,950.9,2453.7,950.9z"/>
	<path d="M2421.7,966.8c-1.6,0-3.2-0.6-4.4-1.7c-1.3-1.2-2.1-3-2.1-4.8v-65.1c0-3.6,2.9-6.5,6.5-6.5h3.2c0.9,0,1.6,0.7,1.6,1.6
		c0,0.9-0.7,1.6-1.6,1.6h-3.2c-1.9,0-3.4,1.5-3.4,3.4v65.1c0,0.9,0.4,1.8,1.1,2.5c0.7,0.6,1.6,0.9,2.5,0.9l60.1-5.3
		c0.9-0.1,1.6,0.6,1.7,1.4c0.1,0.9-0.6,1.6-1.4,1.7l-60.1,5.3C2422.1,966.8,2421.9,966.8,2421.7,966.8z"/>
</g>
<g>
	<g>
		<path d="M118.1,67V41.5h-10.5V67H118.1z M112.8,56.5c2,0,3.7,1.7,3.7,3.7c0,2-1.7,3.7-3.7,3.7c-2,0-3.7-1.7-3.7-3.7
			C109.1,58.1,110.8,56.5,112.8,56.5z"/>
		<polygon points="104.5,60.5 104.5,41.5 37.2,41.5 37.2,60.5 64.6,60.5 64.6,54.4 77.1,54.4 77.1,60.5 		"/>
		<path d="M139.7,63.6h-18.6v6.6h-16.7v-6.6H77.1v8.6H64.6v-8.6H37.2v6.6H20.5v-6.6H2.5v42.9c0,7.2,5.9,13.1,13.1,13.1h111.1
			c7.2,0,13.1-5.9,13.1-13.1V63.6z M22,114.7c-7.9,0-14.4-6.5-14.4-14.4c0-0.4,0.3-0.8,0.8-0.8c0.4,0,0.8,0.3,0.8,0.8
			c0,7.1,5.8,12.9,12.9,12.9c0.4,0,0.8,0.3,0.8,0.8S22.4,114.7,22,114.7z M120.3,114.7c-0.4,0-0.8-0.3-0.8-0.8s0.3-0.8,0.8-0.8
			c7.1,0,12.9-5.8,12.9-12.9c0-0.4,0.3-0.8,0.8-0.8s0.8,0.3,0.8,0.8C134.7,108.3,128.2,114.7,120.3,114.7z"/>
		<path d="M2.5,60.5h17.9v-19h-4.9c-7.2,0-13.1,5.9-13.1,13.1V60.5z"/>
		<path d="M34.1,67V41.5H23.6V67H34.1z M28.8,56.5c2,0,3.7,1.7,3.7,3.7c0,2-1.7,3.7-3.7,3.7c-2,0-3.7-1.7-3.7-3.7
			C25.1,58.1,26.8,56.5,28.8,56.5z"/>
		<path d="M126.7,41.5h-5.5v19h18.6v-5.9C139.7,47.3,133.9,41.5,126.7,41.5z"/>
		<rect x="67.7" y="57.5" width="6.2" height="11.5"/>
	</g>
	<path d="M101.3,38.5h-4.7c0-9.3-3.3-15.4-5.5-15.4H52.5c-2.2,0-5.5,6.2-5.5,15.4h-4.7c0-11.5,4.4-20.1,10.2-20.1h38.6
		C96.9,18.4,101.3,27,101.3,38.5z"/>
</g>
</svg>
