<?xml version="1.0" encoding="utf-8"?>
<!-- Generator: Adobe Illustrator 19.2.0, SVG Export Plug-In . SVG Version: 6.00 Build 0)  -->
<svg version="1.1" id="Layer_1" xmlns="http://www.w3.org/2000/svg" xmlns:xlink="http://www.w3.org/1999/xlink" x="0px" y="0px"
	 viewBox="0 0 141.7 141.7" style="enable-background:new 0 0 141.7 141.7;" xml:space="preserve">
<g>
	<g>
		<path d="M2465.8,913.2v-36.8c0-0.4,0.3-0.8,0.8-0.8s0.8,0.3,0.8,0.8V909l3.2-3.7c0.3-0.3,0.8-0.4,1.1-0.1c0.3,0.3,0.4,0.8,0.1,1.1
			L2465.8,913.2z"/>
		<path d="M2476.5,913.2l-6-6.9c-0.3-0.3-0.2-0.8,0.1-1.1c0.3-0.3,0.8-0.2,1.1,0.1l3.2,3.7v-29.3c0-0.4,0.3-0.8,0.8-0.8
			c0.4,0,0.8,0.3,0.8,0.8V913.2z"/>
	</g>
	<path d="M2540.9,961.5h-2.5l-0.4-0.2c-2.7-1.6-26.9-15.6-54.6,0l-0.4,0.2h-2.5V882l0.8-0.5c31.2-18,58.5-0.1,58.8,0.1l0.7,0.5
		V961.5z M2483.8,883.8v73.8c25-13.1,47.2-3.7,54-0.1v-73.8C2533.5,881.3,2510.2,869.1,2483.8,883.8z"/>
	<path d="M2542.5,966.8c-0.2,0-0.4,0-0.6,0l-60.1-5.3c-0.9-0.1-1.5-0.8-1.4-1.7c0.1-0.9,0.9-1.5,1.7-1.4l60.1,5.3
		c0.9,0.1,1.8-0.2,2.5-0.9c0.7-0.6,1.1-1.5,1.1-2.5v-65.1c0-1.9-1.5-3.4-3.4-3.4h-3.2c-0.9,0-1.6-0.7-1.6-1.6c0-0.9,0.7-1.6,1.6-1.6
		h3.2c3.6,0,6.5,2.9,6.5,6.5v65.1c0,1.8-0.8,3.5-2.1,4.8C2545.7,966.2,2544.2,966.8,2542.5,966.8z"/>
	<path d="M2483.6,961.5h-2.5l-0.4-0.2c-27.7-15.6-51.9-1.7-54.6,0l-0.4,0.2h-2.5v-79.5l0.7-0.5c0.3-0.2,27.6-18,58.8-0.1l0.8,0.5
		V961.5z M2453.7,950.9c8,0,17.2,1.7,26.8,6.7v-73.8c-26.5-14.8-49.8-2.5-54,0v73.8C2430.7,955.3,2440.7,950.9,2453.7,950.9z"/>
	<path d="M2421.7,966.8c-1.6,0-3.2-0.6-4.4-1.7c-1.3-1.2-2.1-3-2.1-4.8v-65.1c0-3.6,2.9-6.5,6.5-6.5h3.2c0.9,0,1.6,0.7,1.6,1.6
		c0,0.9-0.7,1.6-1.6,1.6h-3.2c-1.9,0-3.4,1.5-3.4,3.4v65.1c0,0.9,0.4,1.8,1.1,2.5c0.7,0.6,1.6,0.9,2.5,0.9l60.1-5.3
		c0.9-0.1,1.6,0.6,1.7,1.4c0.1,0.9-0.6,1.6-1.4,1.7l-60.1,5.3C2422.1,966.8,2421.9,966.8,2421.7,966.8z"/>
</g>
<g>
	<path d="M91.8,69.6L73.1,55.5l-2.3-1.7L50,69.6L2.6,44.8l9.7,54.9h97.8h19.5l9.6-53.5L91.8,69.6z M70.9,85.2l-11-11l11-11l11,11
		L70.9,85.2z"/>
	<polygon points="12.6,103.1 14,111.4 19.8,111.4 118.4,111.4 122,111.4 127.8,111.4 129.3,103.1 111.5,103.1 	"/>
</g>
</svg>
