<?xml version="1.0" encoding="utf-8"?>
<!-- Generator: Adobe Illustrator 21.1.0, SVG Export Plug-In . SVG Version: 6.00 Build 0)  -->
<svg version="1.1" xmlns="http://www.w3.org/2000/svg" xmlns:xlink="http://www.w3.org/1999/xlink" x="0px" y="0px"
	 viewBox="0 0 157.6 125.7" style="enable-background:new 0 0 157.6 125.7;" xml:space="preserve">
<style type="text/css">
	.st0{fill-rule:evenodd;clip-rule:evenodd;fill: white;}
</style>
<g id="Layer_1">
	<g>
		<path class="st0" d="M23.8,23.1c0,0.3,0.3,0.4,0.1,0.7c-0.3-0.1-0.4-0.3-0.5-0.6C23.5,23.1,23.6,23.1,23.8,23.1z"/>
		<path class="st0" d="M22.7,23.8c0.4,0,0.7,0.3,0.5,0.5C22.9,24.3,22.6,24.1,22.7,23.8z"/>
		<path class="st0" d="M23.5,26.3c0,0.3-0.1,0.5-0.4,0.5c0-0.1-0.1-0.1-0.1-0.1C23.1,26.4,23.3,26.3,23.5,26.3z"/>
		<path class="st0" d="M24,26.8c-0.1,0.2-0.2,0.5-0.5,0.5C23.4,26.9,23.8,26.5,24,26.8z"/>
		<path class="st0" d="M15.5,28.6c-0.2,0-0.3,0-0.4-0.1c-0.1-0.5,0.3-0.5,0.4-0.7C15.8,27.8,15.7,28.5,15.5,28.6z"/>
		<path class="st0" d="M20.3,34.5c0.3-0.1,0.4,0.5,0.2,0.8c-0.1,0.1-0.4,0.2-0.5,0.3c-0.6,0.5-0.7,1-1.2,0.1c0.6,0,0.7-0.4,0.9-0.8
			C20.1,34.9,20.3,34.8,20.3,34.5z"/>
		<path class="st0" d="M24,34.5c1-0.2,2.2-0.1,2,1c-0.2,1.2-3.1,1.2-2.8-0.3C23.2,34.9,23.4,34.7,24,34.5z"/>
		<path class="st0" d="M16.4,35.2c0.4,0.1,0.7,0.4,0.9,0.6c-0.1,0.5-0.6,0.6-1,0.9c-0.3-0.2-0.5-0.5-0.7-0.7
			c0.1-0.2,0.3-0.2,0.5-0.2C16.3,35.6,16.3,35.4,16.4,35.2z"/>
		<path class="st0" d="M14.1,36c0.2,0,0.2,0.2,0.3,0.2c0.1,0.7-0.6,1-1,0.6C13.6,36.5,14.1,36.5,14.1,36z"/>
		<path class="st0" d="M27.3,41.8c0.2,0.6,0.4,1.3,0.4,2.2c-0.8,0-1.6-0.1-2.2-0.3c-0.1-0.3-0.1-0.5-0.1-0.8
			C26.4,42.8,26.1,41.4,27.3,41.8z"/>
		<path class="st0" d="M32.9,51.4c-0.8,0-1.5,0-2.1-0.1c-0.2-0.3-0.2-0.5-0.1-0.9c0.7-0.1,0.9-1.7,1.9-0.9
			C32.8,50,32.8,50.7,32.9,51.4z"/>
		<path class="st0" d="M29.2,52.9c0.3,0.6,0.4,1.2,0.4,2.1c-1.3,0.3-3.3-0.6-1.6-1.4C28.1,53.2,28.4,52.6,29.2,52.9z"/>
		<path class="st0" d="M23.2,60.1c-0.1,0.1-0.3,0.1-0.5,0.1c-0.3-0.3-0.1-1.1-0.7-1.1c-0.2,0.3-0.1,0.7,0,1c-0.3,0-0.5,0.2-0.8,0.1
			c0.3-0.6,0.1-1.8,0.1-2.5c0.8-0.7,2.4,0.1,1.4,1C22.8,59,23.1,59.6,23.2,60.1z M22.1,58.6c0.4,0,0.5-0.8,0.1-0.8
			C22,57.9,22,58.4,22.1,58.6z"/>
		<path class="st0" d="M27.4,57.7c0.3,0,0.6,0.2,0.9,0.3c-0.4,0.8-0.5,3.3,0.8,2.2c0.1,0.3-0.1,0.3-0.1,0.5c-0.7,0-1.2-0.3-1.7-0.4
			C27.5,59.6,27.5,58.5,27.4,57.7z"/>
		<path class="st0" d="M20.8,58.4c-0.6-0.1-1,0.2-0.7,0.7c0.2,0,0.2-0.2,0.4-0.2c0,0.2,0,0.4,0,0.6c-0.2,0-0.3-0.1-0.5,0
			c0,0.3,0,0.6,0,1c0.6,0.1,0.5-0.5,1-0.6c-0.1,0.8-1,0.8-1.6,1.2c-0.2-0.6,0.2-1.8-0.1-2.4C19.7,58.6,20.5,57.6,20.8,58.4z"/>
		<path class="st0" d="M29.4,58.5c0.2-0.2,0.6,0.2,0.8,0.2c-0.1,0.6,0.1,1,0.3,1.4c0.5,0,0.3-0.8,0.7-1c0.1,0.6-0.5,1.6-1,2.1
			C30,60.3,29.7,59.4,29.4,58.5z"/>
		<path class="st0" d="M18.8,58.9c-0.3,0.9-0.6,1.8-0.9,2.7c-0.4-0.6-0.8-1.3-1.1-2c0.2,0,0.4-0.2,0.7-0.1c0.1,0.4,0.2,0.9,0.5,1.1
			c0.2-0.5,0.6-1.1,0.3-1.6C18.6,59,18.7,58.8,18.8,58.9z"/>
		<path class="st0" d="M23.2,61.8c0,0.8-0.1,1.5-0.1,2.3c-0.2,0-0.5,0-0.7,0c0.2-0.3,0.2-0.8,0.1-1.2c-0.2-0.1-0.3,0.2-0.5,0.3
			c-0.3-0.1-0.4-0.3-0.6-0.4c-0.3,0.4,0.4,1.4-0.3,1.5c0-0.8,0-1.6-0.1-2.3c0.6-0.3,0.8,0.3,1.1,0.5C22.6,62.4,22.5,61.7,23.2,61.8z
			"/>
		<path class="st0" d="M27.9,62c0,0.2,0,0.3,0,0.5c-0.1,0.3-0.4-0.4-0.7-0.4c-0.6,0.3-0.6,1.7-0.1,2c0.3,0,0.4-0.1,0.7-0.1
			c-1.2,1.7-2.5-1.9-0.9-2.2C27.2,61.8,27.4,62,27.9,62z"/>
		<path class="st0" d="M28.5,62.1c0.6,0,1,0.2,1.4,0.4c0,0.2,0,0.3,0.1,0.5c-0.3-0.1-0.4-0.6-0.7-0.4c-0.2,0,0.1,0.5-0.1,0.5
			c0.1,0.1,0.3,0.1,0.5,0.1c0,0.2-0.1,0.3-0.1,0.5c-0.2,0-0.2-0.2-0.4-0.1c-0.2,0.3-0.1,0.8,0,1.2c0.3,0.1,0.7,0,0.8-0.2
			c0.2,0.2,0,0.5-0.2,0.5c-0.5-0.1-0.9-0.4-1.4-0.5C28.4,63.8,28.5,63,28.5,62.1z"/>
		<path class="st0" d="M20,64.8c-0.5-0.5-0.7-1.3-1-2c0.2-0.1,0.5-0.2,0.6-0.1c0,0.5,0.2,0.8,0.4,1.1c0.2-0.4,0.4-1,0.3-1.6
			c0.1,0,0.3,0,0.3-0.1C20.8,62.6,20.1,64,20,64.8z"/>
		<path class="st0" d="M30.6,62.9c0.9,0.1,1.9,0.9,1.3,1.8c0.1,0.5,0.5,1.1,0.5,1.6c-1,0.1-0.5-1.3-1.1-1.6c-0.3,0.1,0,0.8-0.2,1
			c-0.2-0.1-0.4-0.1-0.6-0.2C30.6,64.7,30.6,63.8,30.6,62.9z M31.4,64.3c0.2-0.1,0.1-0.7-0.1-0.7C31.3,63.7,30.9,64.3,31.4,64.3z"/>
		<path class="st0" d="M18.6,63.3c-0.1,0.7,0.5,1.3,0.3,2c-0.2,0.6-1.1,0.7-1.7,1c0.1-0.8,0.2-1.9-0.1-2.6
			C17.4,63.4,18,63.2,18.6,63.3z M17.9,64.1c0.3,0.1,0.3-0.6,0-0.5C17.9,63.8,17.9,63.9,17.9,64.1z M17.9,65.7
			c0.5,0.1,0.5-0.6,0.3-0.9c-0.1,0-0.2,0-0.3,0C18,65.1,17.8,65.4,17.9,65.7z"/>
		<path class="st0" d="M22.6,65.7c-0.2,0.7,0,1.8-0.1,2.6c-0.2,0-0.4,0-0.5,0c0-0.7,0.2-1.9,0-2.5C22.1,65.8,22.2,65.6,22.6,65.7z"
			/>
		<path class="st0" d="M4.9,65.8c0.4,0.5,0.4,1.3,0.4,2.2c-0.8-0.1-1.8,0-2.2-0.4c0-0.3,0-0.3,0-0.7C3.9,66.8,3.7,65.6,4.9,65.8z"/>
		<path class="st0" d="M27.3,66c0.7,0.2,0.9,1,1.3,1.6c0.2-0.2-0.1-1,0.1-1.2c0.5,0.1,0.3,0.8,0.3,1.2c0,0.5,0,1.1-0.1,1.4
			c-0.6-0.5-0.8-1.3-1.3-1.8c-0.2,0.3,0.1,1.1-0.2,1.3c-0.4,0-0.1-0.4-0.1-0.7C27.4,67.2,27.2,66.5,27.3,66z"/>
		<path class="st0" d="M20.9,66.1c0,0.4,0.1,1.6-0.1,2.3c-0.5-0.2-0.6-0.7-0.9-0.9c-0.5,0.3,0.3,1.5-0.4,1.4c0.1-0.7,0.1-1.7,0-2.3
			c0.1,0,0.2,0,0.3-0.1c0.4,0.1,0.5,0.6,0.9,0.8c0.2-0.2,0.1-1.1,0.1-1.2C20.7,66.2,20.8,66.1,20.9,66.1z"/>
		<path class="st0" d="M29.9,66.8c1.1,0.3,0.9,1.9,1.3,2.9c-0.3,0-0.6-0.1-0.7-0.3c0-0.5-0.2-0.8-0.7-0.8c-0.4,0-0.1,0.5-0.5,0.5
			C29.3,68.4,29.8,67.6,29.9,66.8z M30.1,68.3c0-0.2,0-0.4-0.1-0.5C30,68,29.8,68.4,30.1,68.3z"/>
		<path class="st0" d="M18.7,67.4c0.9,1.1-0.2,2.5-1.4,2.6c0.2-0.6,0.2-1.6,0-2.2C17.7,67.6,18,67.3,18.7,67.4z M18,69.4
			c0.5-0.1,0.6-1.4,0.1-1.6c0,0-0.1,0-0.1,0C17.8,68.2,18,68.9,18,69.4z"/>
		<path class="st0" d="M13.2,70.1c0.2,0.6,0.4,1.2,0.3,2.1c-0.8-0.1-1.8,0.1-2.2-0.3c0-0.2,0-0.5,0-0.7
			C12.2,71.1,12.2,69.6,13.2,70.1z"/>
		<path class="st0" d="M22.5,73c0.1,0.6,0.5,1.3,0.3,2.1c-0.6-0.1-1.6,0-2-0.3c-0.3-0.6,0-1.1,0.6-1.1C21.3,73,21.9,72.6,22.5,73z"
			/>
		<path class="st0" d="M10,73.5c0.2,0.6,0.4,1.4,0.3,2.1c-0.8,0.1-1.4-0.1-2.1-0.2c-0.3-0.6,0-1.2,0.6-1.2C9,73.6,9.4,73.2,10,73.5z
			"/>
		<path class="st0" d="M19.8,78.3c-0.7,0-1.3,0-1.9-0.1c-0.3-0.1-0.4-0.5-0.3-0.9c0.8-0.1,0.7-1.4,1.7-1.1
			C19.7,76.7,19.8,77.5,19.8,78.3z"/>
		<path class="st0" d="M6.8,77c0.2,0.6,0.3,1.3,0.4,2c-0.7,0.1-1.7,0-2.2-0.2c-0.1-0.2-0.1-0.5-0.1-0.7c0.2-0.1,0.3-0.3,0.7-0.3
			C5.7,77.1,6.2,76.5,6.8,77z"/>
		<path class="st0" d="M16.3,79.7c0.3,0.6,0.4,1.3,0.4,2.2c-0.7-0.2-2.1,0.2-2.3-0.5c-0.1-0.5,0.3-0.8,0.7-0.9
			C15.2,79.9,15.6,79.4,16.3,79.7z"/>
		<path class="st0" d="M13,83.3c0.1,0.6,0.6,1.5,0.3,2.2c-0.6-0.2-2,0.1-2.2-0.5c-0.1-0.4,0.2-0.8,0.7-0.9
			C11.9,83.5,12.4,83,13,83.3z"/>
		<path class="st0" d="M23.1,85.6c0.2,0.5,0.3,1.2,0.3,1.8c-0.8-0.1-2.1,0.1-2-0.6c0-0.4,0.3-0.4,0.6-0.6
			C22.1,85.8,22.6,85.2,23.1,85.6z"/>
		<path class="st0" d="M20.3,88.5c0.2,0.5,0.4,1.2,0.4,1.9c-0.6-0.1-1.5,0.1-1.9-0.1c-0.3-0.4,0-1,0.5-1
			C19.3,88.7,19.7,88.3,20.3,88.5z"/>
		<path class="st0" d="M75.6,10c3-2.3,6.6-4.4,11.2-5.3c4.8-1,10.3-0.3,14.1,1.5c4.4-3,10.6-5.8,18.5-4.6c5.2,0.8,8.9,2.9,12.1,5.7
			c0.4,0.4,1.1,0.9,1.6,1.4c0.4,0.4,0.9,1.4,1.4,1.5c0.7,0.2,1.6,0,2.3,0.1c4.7,0.6,8.6,2.7,11.7,5.1c3.5,2.8,6.2,6.4,7.9,11.3
			c1.7,5.1,1.5,11.6-0.3,16.3c-1.8,4.6-4.7,8.2-8.4,10.8c1.7,3.9,1.6,10,0.5,14.3c-1.1,4.3-3.4,7.8-5.9,10.5
			c6.5,2.8,11.4,7.7,13.8,14.6c1.3,3.8,1.6,8.3,0.8,12.4c-1.4,7.6-5.9,13.2-11.9,16.6c-3.1,1.7-6.8,3-11.1,3.1
			c-9.3,0.3-15-3.8-19.6-8.8c-3.4-0.1-6.1-0.8-8.5-1.9c-2.6,1.9-5.9,3.7-9.8,4.5c-4.1,0.8-9.1,0.5-12.6-0.9
			c-4.5,3.9-10.3,7.6-18.7,6.9c-7.9-0.6-13.2-4.3-17.1-8.7c-7.3-0.4-12.7-3.4-16.5-7.4c-3.8-4-6.7-9.4-6.8-17
			c-6-0.1-10.3-2-13.8-4.8c-3.4-2.6-6.2-6.4-7.6-11C1.4,71.4,2,64.9,2,58.7c0-6.2,0-12.4,0.1-18.5c2.6,0,5.2,0,7.9,0
			c-0.1-0.7,0.4-1.2,0.7-1.7c-0.1-0.4-0.8-0.3-0.9-0.9c-0.1-0.6,0.6-0.9,0.5-1.4c0-0.5-0.8-0.7-0.9-1.2c-0.1-0.4,0.3-0.8,0.3-1.3
			c0-0.6-0.4-1.4-0.7-2.2c-0.5-1.5-0.7-2.7-1.6-3.7c-0.2-0.7-0.2-1.6-0.5-2.4c-0.4-1.2-2-2.3-2.8-0.9c-0.9-0.3-0.8,0.6-1.6,0.4
			c-0.4-0.1-0.7-0.4-0.8-0.8c-0.2-1.2,0.9-2.1,2.2-2.1c1.7,0,2.6,1.5,3.3,2.5c0.3-0.4,0.4-1,1-1.3c0.9-0.4,2-0.1,2.3,0.8
			c1.7,0.1,2.5,3,1.3,4.3c0.4,1.3-0.9,1.6-1.8,0.9c0.1,0.6,1.3,0.7,1.5,1.4c0,0.5,0,1-0.1,1.4c1.2,0.9,3.9-0.1,3.7-1.4
			c-0.1-0.5-0.5-0.3-0.7-0.7c-0.1-0.4,0.4-0.4,0.3-0.8c-1.4-1.4,0.8-3.9,1.7-1.9c0.2,0.4,0,0.8,0.2,1.2c0.2,0.4,0.7,0.5,0.8,0.8
			c0.1,0.3-0.3,0.6-0.3,0.8c0.6,0.8,1.9,1.3,3.6,1.2c0.8-0.1,1.9-0.4,2-0.8c0-0.5-1.1-0.5-1.2-1c-0.3-1.1,1-1.1,1-2
			c-0.9,0.1-0.8,1.4-1.9,1.1c-0.4-0.1-0.4-0.4-0.7-1c-0.5-0.9-1.2-2.1-0.7-3.5c0.1-0.5,0.5-0.8,0.8-1.2c0.2-0.5,0.3-1,0.7-1.2
			c1.2-0.3,1.1,1.2,2,1.1c0.1-0.9-0.9-0.8-0.9-1.6c0-0.5,0.5-0.6,1-0.9c0.3-0.2,0.6-0.8,1-0.9c0.5-0.2,1.3-0.2,1.8-0.3
			c1.5-5.2,4.2-9.1,7.8-12.2c3.6-3.1,8.2-5.3,14.3-5.7c7.4-0.5,13.2,2.3,17.1,5.7c0.5,0.4,1.2,1.4,1.7,1.5c0.8,0.2,1.9,0,2.7,0.1
			C71.5,8.7,73.7,9.2,75.6,10z M47.6,2.2c-5.9,0.3-10.7,2.7-14.2,5.9c-3.6,3.2-6.2,7.2-7.3,12.5c-1.3,6.1,0.1,12,2.6,16.2
			c2.5,4.2,5.8,7.3,10.4,9.5c1.5-1.6,3.4-3.4,5.3-4.8c-1.4-3.4-2-8-1.5-12.2c0.6-4.1,2.1-7.6,3.9-10.2c3.8-5.6,9.5-9.5,17.5-10.6
			C60.6,5,55.4,1.8,47.6,2.2z M114.5,2.5c-5.2,0.3-9,1.9-12.2,4.3c5.5,2.7,9.4,7.1,11.8,12.9c4.2-4.9,9.7-9.1,18.6-9.6
			C129,5.9,122.8,1.9,114.5,2.5z M112.1,22.9c0.3-0.7,1.1-1.6,1.2-2.1c0-0.3-0.4-1.1-0.7-1.7c-1.7-3.9-4.4-7-7.4-9.2
			c-3.7-2.8-8.5-4.8-14.6-4.5c-5.8,0.3-10,2.4-13.5,5.2c6.2,2.9,10.9,7.8,13.1,14.8c1.2,3.6,1.5,8.3,0.6,12.4
			c-0.8,3.8-2.5,7-4.4,9.6c4.6-3.5,14.4-5.4,21.3-2.6c1.1-0.8,2-1.9,2.7-3.1C108,35.3,109.7,27.5,112.1,22.9z M60.8,10.4
			c-4.5,1.2-8.1,3.7-10.7,6.6c-3.6,3.9-6.5,9.3-6.2,16.9c0.3,6.9,3.4,12,7.4,15.6c4,3.6,9.5,6.6,16.8,6.2c6.9-0.4,12-3.3,15.7-7.3
			c3.7-4,6.5-9.2,6.2-16.9c-0.2-6.7-3.6-12.4-7.3-15.8c-3.8-3.5-9.6-6.6-16.9-6.2C64.1,9.7,62.4,10,60.8,10.4z M127.5,12
			c-4.6,1.2-8.1,3.6-10.8,6.5c-3.5,3.7-6.7,9.3-6.4,16.7c0.3,6.9,3.3,12.2,7.2,15.8c4,3.7,9.4,6.6,16.7,6.4
			c6.8-0.2,12.3-3.2,15.9-7.1c3.6-3.9,6.6-9.2,6.4-16.7c-0.3-7-3.4-12.2-7.1-15.9c-3.6-3.6-9.6-6.7-16.7-6.4
			C131,11.4,129.2,11.6,127.5,12z M22.9,20.6c-0.2,0.2-0.6,0.6-0.3,0.7c0.3-0.1,0.3-0.6,0.6-0.7c0.5,0.2,0.9,0.4,1.6,0.4
			c0.1-0.5,0.3-0.9,0.3-1.5C24,19.5,23.5,20.1,22.9,20.6z M15,29.8c1,0.2,0.3,1.8-0.1,2.3c-1.2,1.2-4.3,1.3-4.9-0.6
			c0.2-0.1,0.6,0.1,0.8,0c0.6-1.2-2.1-1.2-1.7-2.4c0.2-0.5,1.1-0.5,1.5-0.1c0-0.3,0-0.6,0.1-0.7c-0.6-0.8-1.1-1.9-1.1-3.3
			c-0.5-0.1-0.6-0.5-0.6-1.1c-0.3,0-0.7,0.1-0.9,0.3c-0.8,0.9-0.2,2.6,0.9,2.6c-0.1,0.3-0.5,0.5-0.5,0.9c-0.2,0.8,0.3,1.3,0.5,1.9
			c0.4,1.3,0.9,3.2,1.5,4.1c0.1-0.2-0.4-0.4,0-0.7c2.3,0.9,5-0.1,5.5-2.1c1.2,0.5,2.4,1.5,4,1.4c2,0,3.6-1.2,4.6-2.4
			c0.1,0,0.6,0.5,0.4,0.2c-0.3-1.6-0.4-3.5-0.5-5.3c-0.2,0.1-0.2,0.6-0.4,0.7c-0.7-0.5,0.1-1.3,0.5-1.5c0.1-0.7,0.2-1.4,0.1-2.1
			c-0.6,0-1.1,0.1-1.5,0.3c0,0.8-0.3,1.4-1.2,1.3c-0.2,0.4-0.3,0.8-0.3,1.5c0.6,0,1.1,0.1,1.8,0.1c0,0.2,0.1,0.4,0.1,0.7
			c-0.6-0.2-1.2-0.3-1.8-0.4c-0.1,0.4,0,0.8,0.1,1.2c0.6,0.1,1.2,0.1,1.3,0.6c0.2,0.8-1.1,1.3-1.2,2c0.8,0,1-0.9,1.5-0.9
			c0,0.6-0.6,0.8-0.4,1.4c0.8,0.2,0.7-1,1.4-1.1c-0.1,3.8-7.4,4.4-8.3,0.9c0-0.1,0.5-0.2,0.3-0.3C16,29.6,15.3,29.5,15,29.8z
			 M2.8,24.6c0.3-0.2,0.1-0.8,0.3-0.9c0.7,0.2,1.2-0.1,1.9-0.4C4.2,21.5,0.7,23.5,2.8,24.6z M20.6,22.6c-0.4,0.5-1,1-1.2,1.9
			c-0.2,1.3,0.2,2.5,1.1,3c0.1-0.1,0.2-0.3,0.3-0.4c-0.2-0.1-0.4-0.1-0.5-0.2c0.2-1.1,0.2-2.6,0-3.7c0.2,0,0.4-0.1,0.6-0.1
			C20.9,22.8,20.7,22.8,20.6,22.6z M15.4,28.9c0.8-0.1,0.6-2.2-0.4-1.8C14.3,27.4,14.6,29,15.4,28.9z M24.5,30.9
			c-0.3,0.4-0.9,0.6-1.1,1.1c0.7,0,1.4,0,2-0.1C25.3,31.4,25,31.1,24.5,30.9z M16.3,31.7c-0.2,0.3-0.4,0.6-0.5,1
			c0.5-0.1,1.2-0.1,1.6-0.3C17,32.2,16.8,31.8,16.3,31.7z M23.7,32.8c-4.3,0.2-8.7,0.6-12.4,1.5c-0.4,0.1-1.1,0.1-1.2,0.7
			c1.2,0,2.4-0.4,3.7-0.6c3.4-0.7,7.1-1,11.2-1.1c0.4,0,0.9,0.1,0.9-0.1C25.6,32.4,24.2,32.7,23.7,32.8z M17.4,34.5
			c0,0.2,0.1,0.5-0.1,0.6c-1.7-1-3.8-0.2-5.8,0.2c-0.4,0.1-0.7,0.5-0.7,0.7c0.7,0.2,1.4,0.5,1.6,1.2c0.1-0.5-0.3-0.6-0.1-1
			c0.8,0.1,0.9,1.1,0.5,1.8c1.2-0.2,2.5-0.4,3.5-0.7C16,37,15.1,37,15,36.4c0.5-0.1,1,0.4,1.5,0.5c0.6-0.3,1-0.9,1.6-1.1
			c0.1,0.1,0.4,0.1,0.4,0.4c-0.2,0.4-1.1,0.8-1,1.2c0.8,0,1.5-0.2,2.3-0.3c0-0.3-0.2-0.3-0.2-0.6c0.5,0,0.8-0.3,0.9-0.7
			c0.5,0.1,0.6-0.3,1-0.5c0.7,0.9-0.8,0.9-0.8,1.7c0.9,0.1,1.6-0.1,2.4-0.1c0.8-0.5,2.2-0.1,2.9-0.7c0.3-0.2,0.2-0.5,0.6-0.6
			c0,0.5-0.3,0.8-0.3,1.3c0.3,0,0.7,0,1,0c-0.4-0.8-0.8-1.5-1.1-2.4C23.9,33.5,19.8,33.8,17.4,34.5z M25.6,37.5
			c-1.1,0-2.5,0-3.2,0.1c-3.8,0.2-7.6,0.7-10.6,1.5c-0.4,0.1-1,0.2-1.2,0.6c0.6,0.2,1.3-0.1,1.9-0.3c4.5-1.1,10.1-1.8,15.5-1.5
			C27.7,37.3,26.5,37.5,25.6,37.5z M9.3,54.5c-0.1-0.6,0.2-1.2,0-1.7c-0.3,0.7-0.4,1.7-1.2,1.9c0-0.6,0.4-1.1,0.3-1.6
			c-0.6,0.7-1.5,2.1-2.9,1.5c0.7-0.5,1.3-1.4,1.2-2.4c-1,0.7-1.7,2-3.1,2.1c0.1-0.4,0.5-0.5,0.8-0.7c0.4-0.4,1.1-1,1-1.4
			c-0.8,0.4-2.3,0.2-2.3-0.8c1.2-0.1,1.7-0.8,2.2-1.6c-0.6,0-1.5,0.2-2-0.1c0.5-0.2,1.1-0.3,1.4-0.6c-0.5-0.3-1.4-0.7-1.1-1.7
			c0.7,0,1.5,0.1,1.7-0.3c-0.7-0.4-1.7-0.3-2-1.2c0.4,0.1,0.9,0.1,1.3,0.3c-0.4-0.5-1.2-1.4-0.5-2.2c0.5,0.2,0.7,0.7,1.4,0.8
			c-0.2-0.7-1-1-0.8-1.8c0.4,0.4,0.6,1,1.3,1.2c0-0.7,0-1.3,0.4-1.5c0.5,0.6,0.5,1.7,1.6,1.7c0.4,0.4,0.5,1.3,0.9,1.5
			c0.2,1-0.9,0.6-1.1,1.2c0.4,0.2,0.4-0.2,0.8-0.1c0.6,0.6,1.9,0.4,2.2-0.3c-0.2-0.2-0.3-0.6-0.3-0.9c0.1-0.1,0.5,0.1,0.7-0.1
			c0.1-1.2-2-0.4-1.9-1.4c-0.9,0.4-2.4-0.3-1.4-1c0.1,0.4,0.9,0.8,1.2,0.3c-0.2-0.1-0.7,0.1-0.7-0.2c0.5-1.2,2.2-1.1,3.4-0.7
			c0,1.1,0.9,1.1,1.4,1.8c0.1,0.3-0.1,0.9,0.1,1c0.2-0.2,0.2-0.7,0.1-1c0.6-0.6,1.5-1,1.5-2c1.5-0.2,2.9-0.4,3.3,1
			c-0.2,0.2-0.8-0.2-0.8,0.3c0.6,0.4,1.1-0.2,1.4-0.5c0.7,0.5-0.2,1.3-1.1,1c-0.4,0.8-2,0.3-2,1.5c0.2,0.2,0.5-0.2,0.5,0.1
			c0,0.5-0.5,0.3-0.5,0.8c0,1.1,1.8,0.3,2.6,0.3c0.3,0,0.3,0.3,0.7,0.3c0-0.2,0.1-0.3,0.1-0.5c-1.6,0-1.9-0.7-0.9-1.6
			c0.4-0.4,0.7-0.8,1.3-0.9c0.4-0.4,0.5-1.1,1-1.4c0.3,0.2,0.3,0.7,0.3,1.2c0.4,0.1,0.5-0.6,0.9-0.7c0.2,0.7-0.6,1.2-0.8,1.8
			c0.8-0.1,1.1-0.7,1.6-1c0.5,0.6,0,1.7-0.3,2c0.3,0,0.7-0.4,1-0.2c-0.3,0.8-1.2,1.1-2.1,1.3c0.3,0.6,1.6,0.5,2,0.1
			c0.6,0.8-0.4,1.6-0.8,2c0.3,0.2,0.8,0.2,0.9,0.5c-0.4,0.3-1,0-1.5,0c0.2,1.1,1.1,1.5,2,2c-0.3,0.7-1.3,1.1-2.2,0.7
			c0.2,1,1.4,1.4,1.6,2.1c-1.5-0.4-2.1-1.7-3.1-2.6c-0.3,1.4,0.6,2.1,1.1,2.9c-1.4,0-1.9-0.9-2.8-1.4c0,0.4,0.4,1,0.1,1.3
			c-0.6-0.4-0.7-1.4-1.1-2c-0.3,0.6,0.4,1.2,0.1,1.8c-0.7-0.1-0.6-0.9-1.1-1.1c-0.5,1.6,3.2,1.3,2.7,2.9c-0.1,0.3-0.6,0.5-0.8,0.1
			c-0.2-0.2,0.2-0.2,0.1-0.5c-0.2-0.2-0.4-0.2-0.8-0.2c0,0.7,0.6,0.9,1,1.2c0.4-0.1,0.8-0.3,1.2-0.5c0-0.7,0.2-1.5,1-1.2
			c-0.1,0.3-0.2,0.6,0.1,0.7c0.3-0.1,0.2-0.6,0.5-0.7c0.4-0.1,1.3-0.2,1.4,0.3c-0.1,0.1-0.4,0-0.4,0.2c0.6,0.2,1.1,0.4,1.8,0.5
			c0-5,0-10.1,0-15.1c-7.2,0-14.3,0-21.5-0.1c0,7.8,0,15.6-0.1,23.5c3.9,0,7.8,0,11.7,0c-0.1-0.6,0.1-1.4-0.1-1.7
			c-0.3,0.1-0.5,0.3-0.8,0.3c-0.6-0.3-0.9-0.8-1.8-0.8c-0.3,0-0.1,0.5-0.4,0.5c-0.8-0.5,0.1-1.4,0.5-1.8c-0.8,0.3-1.3,0.9-1.9,1.4
			c0,0.2,0.4,0.2,0.1,0.5c-0.7,0.1-0.7-0.6-0.8-1.2c-0.7-0.1-1-0.6-1.7-0.6c-0.2,0,0,0.5-0.2,0.5c-0.8-0.9,0.4-2,1.5-1.6
			c0-1,1.4-1.7,1.6-0.3c-0.2,0-0.6-0.1-0.6,0.1c0.4,1.2,2.6,0.7,2.5-0.6c-1.5,0.6-2.2-1.6-0.7-1.5c-0.1,0.3-0.2,0.5,0,0.7
			c0.9,0.1,0.7-0.9,0.7-1.6c-0.2-0.4-0.7-0.4-0.6-1c0.1-0.2,0.4-0.1,0.6-0.1c0-0.3,0-0.6-0.2-0.7c-1.4-0.1-0.6,2.8-1.7,2.8
			c-0.3,0-0.5-0.2-0.5-0.5c0.1-0.1,0.6,0,0.5-0.4c-0.3,0.1-0.6,0.4-1.2,0.5c-0.5,0.2-1.1,0.2-1.4,0.5c0.6,0.5,0.3,2.2-0.4,2.1
			c0.2-0.6-0.4-0.8-0.3-1.7c-0.7-0.5-2.3-0.5-3.3-0.6c0-0.5,0.4-1.1,0.8-1.1c0.4,0,0.4,0.4,0.7,0.3c-0.1-0.4-0.5-0.5-0.7-0.8
			c0-0.4-0.4-0.4-0.5-0.7c0.1-0.4,1-0.2,1.3-0.1c0.3,0.2,0.1,1,0.5,1.1c0.2-0.6-0.1-0.9-0.1-1.3c1.1,0,1.2,0.9,1.2,2
			c0.9,0.3,1.8-0.3,2-1.2c-0.3,0-0.5,0-0.7,0.1c0,0.3,0.3,0.3,0.1,0.6c-0.4,0.2-0.7,0-0.8-0.2c-0.6-1.4,2.6-1.3,2.4-2.4
			C9.9,54.2,9.7,54.4,9.3,54.5z M30.1,41c-1.3-0.4-3.8,0.3-5.4,0c0,2.4,0,4.8,0,7.3c2-1.9,4.1-4.3,6.1-6.4
			C30.7,41.6,30.5,41.1,30.1,41z M37.2,51.7c-1.8,3.6-2.8,8.6-2,13.7c1.4,9,7.2,14.8,14.6,17.9c0.8-0.5,1.5-1.1,2.2-1.7
			c2.4-1.8,4.9-3,8.2-3.9c3.9-1,8.6-1,12.4,0c0.4,0.1,1.3,0.5,1.6,0.5c0.4,0,1.2-1,1.4-1.4c0.5-0.6,0.9-1.1,1.1-1.6
			c-1.2-3.4-1.5-8-0.8-12c0.6-3.3,1.9-6.2,3.3-8.5c0.2-0.3,0.6-0.7,0.4-1.1c-0.4-0.1-0.7,0.2-1,0.4c-2.5,1.4-5.4,2.3-8.7,2.8
			c-4,0.5-8.1-0.1-11.4-1.3C52.3,53,47.7,48.4,45,42.7c0,0-0.1,0-0.1,0C41.6,45,39.1,47.9,37.2,51.7z M112.9,47.3
			C113,47.4,113.1,47.4,112.9,47.3c-0.6-1.2-1.4-2.4-1.9-3.9c-0.7,0.5-1.7,1.1-2,1.8C110.5,45.8,111.7,46.5,112.9,47.3z M82.7,52
			c-3.5,3.7-6.6,9.4-6.1,16.9c0.4,5.4,2.2,9.4,4.6,12.6c0.8,1.1,1.8,2,2.8,3c3.5,3.6,9.8,6.6,16.9,6.2c6.9-0.5,11.9-3.3,15.6-7.4
			c3.6-3.9,6.6-9.4,6.2-16.8c-0.4-7.1-3.4-12-7.3-15.7c-3.8-3.5-9.6-6.6-17-6.2C91.1,45.1,86.4,48,82.7,52z M36.2,47.9
			c-0.7-0.2-2,0.2-2.2-0.4c-0.2-0.5,0.2-0.9,0.7-1c0.1-0.4,0.3-0.8,0.7-0.9c-0.4-0.2-0.6-0.5-1-0.6c-2.7,2.9-5.7,6.1-8.5,9.1
			c-0.6,0.6-1.3,1.1-1.2,2c1.5-0.6,3.4-0.2,4.6,0.4c2.8-3.1,5.8-6.2,8.6-9.3c-0.7-0.3-1.5-0.9-2-1.1C36.1,46.5,36.4,47.2,36.2,47.9z
			 M10.9,47.8c0,0-0.1,0-0.1,0c-0.2,0.6,0,1.5-0.1,2.2c1.9,0,3.9,0.1,5.7-0.1c0-0.7,0-1.5,0-2.2C14.5,47.8,12.6,47.6,10.9,47.8z
			 M10.6,52.2c-0.1,3.5,5.6,3,5.6-0.1C14.5,52.2,12.5,52.2,10.6,52.2z M123.9,67.9c-0.2,5.1-1.8,9.7-3.9,12.9
			c4.5-3.5,14.1-5.3,21-2.7c2.5-2.4,4.8-5.8,6-9.8c1.2-4,1.3-9.9-0.2-13.8c-3.4,2.1-7.8,4-13.3,4c-5.5,0-10-1.8-13.4-4
			c0,0-0.1-0.1-0.1,0C122.2,57.9,124.1,62.7,123.9,67.9z M14.4,55.1c-0.1,0.3,0,0.3,0.1,0.5c0.3,0.1,0.3-0.3,0.5-0.1
			c0.4,0.6-0.5,0.9-0.5,1.4c-0.1,0.4,0,1.2,0.5,1.4c0.3-0.1,0.3-0.5,0.5-0.7c0.3,0,0.8,0.4,1,0C15.3,57.2,16,54.2,14.4,55.1z
			 M15.6,58.5c0.1,4.6-0.2,9.1,0,13.6c2.1,0.1,3-1.6,4.7-2c1.2-0.3,2.7,0,3.9,0.3c0-4.5,0-9.1,0-13.6C21.3,54.8,18.3,58.1,15.6,58.5
			z M30.1,57.3c-1.6-0.9-3.8-1.9-5.4-0.6c0,4.6,0,9.1,0,13.7c0.9-0.2,1.4-0.4,2.3-0.5c2.7-0.1,3.9,2.3,6.6,2.2
			c0.2-4.3,0-8.9,0.1-13.4C32.6,58.2,31.3,58,30.1,57.3z M16.9,57.5c0.2,0,0.3-0.2,0.5-0.1c-0.2-0.3-0.6-0.4-0.9-0.6
			C16.4,57.2,17.1,56.9,16.9,57.5z M2.7,65.1c-0.1,2.2-0.1,4.6-0.1,6.9c1.8-1.7,3.9-4.1,5.6-6.1c0.3-0.3,0.8-0.5,0.7-0.8
			C6.8,65.1,4.8,65.1,2.7,65.1z M5.3,76.4c-0.4,0.4-1.1,1.1-1.2,1.5c0,0.5,0.5,1.4,0.8,1.9C5.3,80.4,5.6,81,6,81.5
			c2.1-2,4.2-4.4,6.3-6.6c0.6-0.6,1.9-1.6,2-2.3c0.4-1.5-0.2-4.5-0.1-5.8C11.6,69.7,8.2,73.4,5.3,76.4z M34.8,72.3
			c0.3-0.3,0.6-0.5,1-0.7c0-0.3-0.2-0.5-0.3-0.7c-0.3,0-0.5,0-0.8,0C34.8,71.4,34.7,72,34.8,72.3z M25.3,72.4
			c0.2-1.3-1.9-1.7-1.6,0.3C24.2,73.3,25.2,73.1,25.3,72.4z M22.4,72.3C22.4,72.3,22.3,72.3,22.4,72.3c-1.5-0.3-2.2,1-2.9,1.8
			c-3,3.3-5.8,6.3-8.8,9.6c-0.4,0.5-1.5,1.3-1.4,1.7c0,0.4,1.1,1,1.4,1.3c0.6,0.5,1,1,1.6,1.2c3.4-3.4,7-7.4,10.4-11.1
			c0.8-0.8,1.6-1.4,1.4-2.8C23.4,73.9,23,72.6,22.4,72.3z M27.1,78c0.6-0.5,1.2-1.1,1.2-2.2c-0.6,0-0.8,0.7-1.2,1
			c-0.5,0.4-1.1,0.8-1.8,0.9c0.6-0.7,1.5-1.1,1.9-2c-0.8,0.2-1.6,0-1.8-0.6c0.9-0.6,1.7-1.3,1.9-2.5c-0.2-0.2-0.5-0.1-0.9-0.1
			c-0.3,0.8-0.7,1.5-1.8,1.5c0,4.7-0.1,9.5,0,14c0.4-2.6,1.3-4.7,2.3-6.8c-0.6,0-1.3-0.1-1.6,0c-0.2-0.8,0.9-1.6,1.5-0.8
			c-0.3-0.7-0.8-1.1-1.2-1.7c0.5-0.3,1.2-0.3,1.5,0.1c0.2,0.3-0.1,0.8,0.4,0.8c0.2-0.5-0.1-1-0.1-1.3c0.4,0,0.6,0.3,0.9,0.4
			c0.4-0.8,1.3-1.5,1.6-2.3C29.4,77.1,28.5,78.6,27.1,78z M26.3,98.4c2.5,9.3,9.8,15.6,20.3,16.9c-2.7-4.1-5.1-9.5-4.4-16.6
			c0.5-5.4,2.8-9.9,5.5-13.1c0.4-0.5,0.9-0.9,1.1-1.5c-5.6-2.3-9.7-6.2-12.5-11.4C29.3,76.8,23.2,86.8,26.3,98.4z M75.5,78.6
			c1.2,0.5,2.5,1.3,3.5,1.7c-0.7-1-1.2-2.2-1.8-3.3C76.7,77.5,76,78,75.5,78.6z M116.5,85.3c-3.7,3.8-6.6,9.1-6.4,16.7
			c0.2,7.1,3.3,12.2,7.1,15.9c3.9,3.7,9.2,6.6,16.7,6.4c6.9-0.2,12-3.3,15.9-7.1c3.7-3.7,6.7-9.3,6.4-16.5c-0.3-7.1-3.1-12.4-7-16
			c-3.8-3.5-9.5-6.7-16.7-6.4C125.1,78.5,120.3,81.4,116.5,85.3z M49.6,85.2C46,89,43,94.6,43.3,102c0.3,6.9,3.3,12.1,7.3,15.8
			c3.9,3.7,9.4,6.7,16.8,6.4c6.9-0.3,12.1-3.3,15.8-7.3c3.6-3.9,6.6-9.3,6.3-16.7c-0.2-3.6-1-6.6-2.3-9.2c-1.4-2.8-3-4.5-4.9-6.6
			c-3.5-3.7-9.7-6.7-16.8-6.4C58.2,78.4,53.3,81.3,49.6,85.2z M24,82.3c-3,2-5,5.1-7.1,7.9c2,0.8,4.4,1.3,7.2,1.4
			C24,88.5,24.1,85.3,24,82.3z M100,91.9c-4.9,0.2-9.5-1.5-13-3.6c2,3.5,3.7,7.7,3.6,12.8c0,7.2-3.1,12.3-6.3,16.3
			c4.9,1.8,11.4,1,15.6-0.6c4.3-1.7,7.7-4.7,10.2-8.1c-1.2-3.2-1.6-7.5-0.9-11.4c0.6-3.7,2.1-6.9,3.6-9.3
			C109.5,90.2,105,91.7,100,91.9z M107,113.9c1.9,0.7,4.2,1.4,6.6,1.4c-1.2-1.6-2.1-3.4-3-5.3C109.5,111.5,108.3,112.7,107,113.9z"
			/>
	</g>
</g>
<g id="Layer_5">
</g>
<g id="Layer_3">
</g>
<g id="Layer_2">
</g>
<g id="Layer_4">
</g>
</svg>
